<svg width="20" height="20" viewBox="0 0 20 20" fill="none" xmlns="http://www.w3.org/2000/svg">
<path fill-rule="evenodd" clip-rule="evenodd" d="M8.42857 2.94116H4L4 7.36973L8.42857 7.36973L8.42857 2.94116ZM4 1.94116C3.44772 1.94116 3 2.38888 3 2.94116V7.36973C3 7.92202 3.44771 8.36973 4 8.36973H8.42857C8.98086 8.36973 9.42857 7.92202 9.42857 7.36973V2.94116C9.42857 2.38888 8.98086 1.94116 8.42857 1.94116H4ZM8.42857 11.5126H4L4 15.9412H8.42857L8.42857 11.5126ZM4 10.5126C3.44772 10.5126 3 10.9603 3 11.5126V15.9412C3 16.4934 3.44771 16.9412 4 16.9412H8.42857C8.98086 16.9412 9.42857 16.4934 9.42857 15.9412V11.5126C9.42857 10.9603 8.98086 10.5126 8.42857 10.5126H4ZM12.5714 2.94116H17V7.36973L12.5714 7.36973V2.94116ZM11.5714 2.94116C11.5714 2.38888 12.0191 1.94116 12.5714 1.94116H17C17.5523 1.94116 18 2.38888 18 2.94116V7.36973C18 7.92202 17.5523 8.36973 17 8.36973H12.5714C12.0191 8.36973 11.5714 7.92202 11.5714 7.36973V2.94116Z" fill="#6B6B6B"/>
<path fill-rule="evenodd" clip-rule="evenodd" d="M15.75 13.5V11.25H14.75V13.5H12.5V14.5H14.75V16.75H15.75V14.5H18V13.5H15.75Z" fill="#E8EBF3"/>
</svg>
