<svg width="245" height="222" viewBox="0 0 245 222" fill="none" xmlns="http://www.w3.org/2000/svg">
<path opacity="0.7" d="M33.2857 74.188C33.2857 74.188 19.6245 106.156 38.8227 138.346C58.0209 170.536 97.5639 187.541 129.213 202.082C160.862 216.623 193.726 209.541 209.343 185.725C224.959 161.909 203.541 144.908 203.512 110.947C203.482 76.9852 209.122 67.9942 188.812 39.3029C168.501 10.6116 118.712 4.25798 81.0607 25.5389C43.4091 46.8198 33.2857 74.188 33.2857 74.188Z" fill="white"/>
<path d="M55.174 40.6038C57.2325 39.3117 59.4001 38.1686 61.6567 37.185C77.9835 30.1077 98.0245 32.4387 113.719 40.6127C129.414 48.7867 141.159 62.1467 149.7 76.6033C153.62 83.2101 157.094 90.3052 163.371 95.1892C171.456 101.485 182.378 102.91 192.016 106.338C227.061 118.81 227.463 164.529 196.745 181.6C184.637 188.331 169.682 190.361 155.771 191.302C136.494 192.603 116.87 191.937 98.2548 187.221C79.6397 182.506 62.034 173.533 49.5782 160.137C33.271 142.6 26.9843 118.752 27.8075 95.8285C28.224 84.2268 30.38 72.5274 35.77 62.0091C40.1457 53.5509 46.746 45.8874 55.174 40.6038Z" fill="#FACC15"/>
<path opacity="0.7" d="M55.174 40.6038C57.2325 39.3117 59.4001 38.1686 61.6567 37.185C77.9835 30.1077 98.0245 32.4387 113.719 40.6127C129.414 48.7867 141.159 62.1467 149.7 76.6033C153.62 83.2101 157.094 90.3052 163.371 95.1892C171.456 101.485 182.378 102.91 192.016 106.338C227.061 118.81 227.463 164.529 196.745 181.6C184.637 188.331 169.682 190.361 155.771 191.302C136.494 192.603 116.87 191.937 98.2548 187.221C79.6397 182.506 62.034 173.533 49.5782 160.137C33.271 142.6 26.9843 118.752 27.8075 95.8285C28.224 84.2268 30.38 72.5274 35.77 62.0091C40.1457 53.5509 46.746 45.8874 55.174 40.6038Z" fill="white"/>
<path d="M66.3264 59.9045C66.5001 59.2321 66.5872 58.5437 66.5861 57.8532C66.5861 55.4352 65.5264 53.1163 63.6399 51.4061C61.7535 49.696 59.1948 48.7346 56.5264 48.7334C55.6391 48.7329 54.7557 48.8404 53.9 49.0531C52.879 47.4096 51.2989 46.1094 49.3955 45.3465C47.4921 44.5835 45.3674 44.3987 43.3386 44.8197C41.3098 45.2408 39.4856 46.245 38.1383 47.6825C36.7911 49.12 35.9929 50.9138 35.8631 52.796C35.3785 52.712 34.8864 52.6689 34.3931 52.6673C32.4539 52.6661 30.5822 53.3125 29.1359 54.483C27.6895 55.6535 26.77 57.2659 26.5531 59.012C25.4609 59.1157 24.4507 59.5848 23.72 60.3276C22.9894 61.0705 22.5909 62.0337 22.6025 63.0287C22.6142 64.0237 23.0351 64.979 23.783 65.7076C24.5308 66.4363 25.5518 66.8859 26.6462 66.9685H63.553C64.4546 66.9589 65.3312 66.6991 66.0649 66.2242C66.7985 65.7492 67.3539 65.0819 67.6561 64.3121C67.9583 63.5424 67.9929 62.7072 67.7551 61.9191C67.5173 61.131 67.0187 60.4279 66.3264 59.9045Z" stroke="#263238" stroke-linecap="round" stroke-linejoin="round"/>
<path d="M39.494 73.7307V82.9437" stroke="#263238" stroke-linecap="round" stroke-linejoin="round"/>
<path d="M39.494 68.2028V71.888" stroke="#263238" stroke-linecap="round" stroke-linejoin="round"/>
<path d="M39.494 64.7618V66.7332" stroke="#263238" stroke-linecap="round" stroke-linejoin="round"/>
<path d="M37.5732 81.8647L39.4891 84.0181L41.4099 81.8647" stroke="#263238" stroke-linecap="round" stroke-linejoin="round"/>
<path d="M46.0453 77.6778V86.8908" stroke="#263238" stroke-linecap="round" stroke-linejoin="round"/>
<path d="M46.0453 72.15V75.8352" stroke="#263238" stroke-linecap="round" stroke-linejoin="round"/>
<path d="M46.0453 68.709V70.6803" stroke="#263238" stroke-linecap="round" stroke-linejoin="round"/>
<path d="M44.1245 85.8119L46.0452 87.9653L47.966 85.8119" stroke="#263238" stroke-linecap="round" stroke-linejoin="round"/>
<path d="M52.1653 69.9344V79.1474" stroke="#263238" stroke-linecap="round" stroke-linejoin="round"/>
<path d="M52.1653 64.4066V68.0918" stroke="#263238" stroke-linecap="round" stroke-linejoin="round"/>
<path d="M52.1653 60.9656V62.937" stroke="#263238" stroke-linecap="round" stroke-linejoin="round"/>
<path d="M50.2446 78.0685L52.1654 80.2219L54.0862 78.0685" stroke="#263238" stroke-linecap="round" stroke-linejoin="round"/>
<path d="M149.509 122.14C149.119 120.605 149.174 119.005 149.669 117.495C150.164 115.986 151.082 114.618 152.334 113.525C153.586 112.433 155.128 111.652 156.812 111.26C158.495 110.868 160.262 110.878 161.94 111.289C162.961 109.645 164.542 108.345 166.446 107.582C168.35 106.819 170.475 106.635 172.504 107.056C174.533 107.478 176.357 108.483 177.704 109.921C179.051 111.359 179.848 113.153 179.977 115.036C180.461 114.952 180.954 114.909 181.447 114.907C183.385 114.906 185.256 115.552 186.703 116.721C188.149 117.891 189.069 119.502 189.287 121.248C190.379 121.351 191.389 121.82 192.12 122.563C192.851 123.306 193.249 124.269 193.237 125.264C193.226 126.259 192.805 127.214 192.057 127.943C191.309 128.672 190.288 129.121 189.194 129.204H152.287C151.385 129.195 150.508 128.936 149.773 128.462C149.039 127.987 148.483 127.32 148.18 126.55C147.877 125.78 147.842 124.944 148.08 124.156C148.317 123.367 148.816 122.664 149.509 122.14Z" stroke="#263238" stroke-linecap="round" stroke-linejoin="round"/>
<path d="M174.778 132.592V123.379" stroke="#263238" stroke-linecap="round" stroke-linejoin="round"/>
<path d="M174.778 138.12V134.434" stroke="#263238" stroke-linecap="round" stroke-linejoin="round"/>
<path d="M174.778 141.561V139.594" stroke="#263238" stroke-linecap="round" stroke-linejoin="round"/>
<path d="M176.699 124.458L174.778 122.304L172.857 124.458" stroke="#263238" stroke-linecap="round" stroke-linejoin="round"/>
<path d="M168.227 128.645V119.436" stroke="#263238" stroke-linecap="round" stroke-linejoin="round"/>
<path d="M168.227 134.172V130.487" stroke="#263238" stroke-linecap="round" stroke-linejoin="round"/>
<path d="M168.227 137.618V135.646" stroke="#263238" stroke-linecap="round" stroke-linejoin="round"/>
<path d="M170.148 120.51L168.227 118.357L166.306 120.51" stroke="#263238" stroke-linecap="round" stroke-linejoin="round"/>
<path d="M162.102 136.388V127.175" stroke="#263238" stroke-linecap="round" stroke-linejoin="round"/>
<path d="M162.102 141.916V138.231" stroke="#263238" stroke-linecap="round" stroke-linejoin="round"/>
<path d="M162.102 145.357V143.385" stroke="#263238" stroke-linecap="round" stroke-linejoin="round"/>
<path d="M164.023 128.254L162.102 126.1L160.186 128.254" stroke="#263238" stroke-linecap="round" stroke-linejoin="round"/>
<path d="M16.8217 197.793H229.467" stroke="#263238" stroke-miterlimit="10"/>
<path d="M177.767 170.496C177.767 170.496 186.215 171.1 186.587 176.743C186.567 176.743 178.012 180.313 177.767 170.496Z" fill="#FACC15" stroke="#263238" stroke-linecap="round" stroke-linejoin="round"/>
<path d="M194.476 171.895C194.476 171.895 199.195 166.123 206.819 169.08C206.819 169.08 202.164 176.068 194.476 171.895Z" fill="#FACC15" stroke="#263238" stroke-linecap="round" stroke-linejoin="round"/>
<path d="M206.172 153.646C206.172 153.646 207.53 164.746 196.372 161.705C196.358 161.705 199.92 153.526 206.172 153.646Z" fill="#FACC15" stroke="#263238" stroke-linecap="round" stroke-linejoin="round"/>
<path d="M192.457 147.452C192.457 147.452 201.277 151.773 194.795 158.322C194.795 158.322 188.596 153.624 192.457 147.452Z" fill="#FACC15" stroke="#263238" stroke-linecap="round" stroke-linejoin="round"/>
<path d="M181.584 157.394C181.584 157.394 191.193 156.506 191.193 164.573C191.193 164.573 181.584 164.915 181.584 157.394Z" fill="#FACC15" stroke="#263238" stroke-linecap="round" stroke-linejoin="round"/>
<path d="M190.644 188.256C190.644 188.256 186.264 179.927 190.468 171.446C194.672 162.966 196.093 155.817 193.898 150.782" stroke="#263238" stroke-linecap="round" stroke-linejoin="round"/>
<path d="M184.73 159.556C184.73 159.556 190.487 161.629 192.447 167.006" stroke="#263238" stroke-linecap="round" stroke-linejoin="round"/>
<path d="M203.134 158.095C203.134 158.095 199.807 162.202 194.172 161.758" stroke="#263238" stroke-linecap="round" stroke-linejoin="round"/>
<path d="M203.134 170.261C203.134 170.261 193.917 172.667 190.257 171.881" stroke="#263238" stroke-linecap="round" stroke-linejoin="round"/>
<path d="M180.521 173.036C180.521 173.036 184.642 177.134 188.782 177.072" stroke="#263238" stroke-linecap="round" stroke-linejoin="round"/>
<path d="M180.055 181.649H199.396L197.372 197.664H182.084L180.055 181.649Z" fill="#263238"/>
<path d="M199.744 181.294H179.712C179.444 181.294 179.227 181.491 179.227 181.734V183.114C179.227 183.357 179.444 183.554 179.712 183.554H199.744C200.011 183.554 200.229 183.357 200.229 183.114V181.734C200.229 181.491 200.011 181.294 199.744 181.294Z" fill="#263238"/>
<path d="M181.584 183.554H193.231" stroke="white" stroke-linecap="round" stroke-linejoin="round"/>
<path d="M195.432 183.554H197.181" stroke="white" stroke-linecap="round" stroke-linejoin="round"/>
<path d="M225.611 47.4147V112.239C225.611 113.028 225.265 113.784 224.649 114.342C224.033 114.9 223.198 115.214 222.328 115.214H83.79C82.9188 115.214 82.0833 114.9 81.4668 114.343C80.8504 113.785 80.5034 113.028 80.5021 112.239V47.4147C80.5034 46.6254 80.8504 45.8687 81.4668 45.311C82.0833 44.7532 82.9188 44.4399 83.79 44.4399H222.328C223.198 44.4399 224.033 44.7534 224.649 45.3112C225.265 45.8691 225.611 46.6258 225.611 47.4147Z" fill="white"/>
<mask id="mask0_10_1716" style="mask-type:luminance" maskUnits="userSpaceOnUse" x="80" y="44" width="146" height="72">
<path d="M225.611 47.4147V112.239C225.611 113.028 225.265 113.784 224.649 114.342C224.033 114.9 223.198 115.214 222.328 115.214H83.79C82.9188 115.214 82.0833 114.9 81.4668 114.343C80.8504 113.785 80.5034 113.028 80.5021 112.239V47.4147C80.5034 46.6254 80.8504 45.8687 81.4668 45.311C82.0833 44.7532 82.9188 44.4399 83.79 44.4399H222.328C223.198 44.4399 224.033 44.7534 224.649 45.3112C225.265 45.8691 225.611 46.6258 225.611 47.4147Z" fill="white"/>
</mask>
<g mask="url(#mask0_10_1716)">
<path opacity="0.2" d="M225.611 50.8602V112.252C225.611 113.041 225.265 113.798 224.649 114.356C224.033 114.913 223.198 115.227 222.328 115.227H135.162V50.8469L225.611 50.8602Z" fill="#FACC15"/>
</g>
<path d="M225.611 47.4147V112.239C225.611 113.028 225.265 113.784 224.649 114.342C224.033 114.9 223.198 115.214 222.328 115.214H83.79C82.9188 115.214 82.0833 114.9 81.4668 114.343C80.8504 113.785 80.5034 113.028 80.5021 112.239V47.4147C80.5034 46.6254 80.8504 45.8687 81.4668 45.311C82.0833 44.7532 82.9188 44.4399 83.79 44.4399H222.328C223.198 44.4399 224.033 44.7534 224.649 45.3112C225.265 45.8691 225.611 46.6258 225.611 47.4147Z" stroke="#263238" stroke-linecap="round" stroke-linejoin="round"/>
<path d="M213.473 77.0917H195.446C194.481 77.0917 193.555 77.4392 192.872 78.0579C192.189 78.6766 191.806 79.5157 191.806 80.3906C191.807 81.2648 192.191 82.1027 192.874 82.7204C193.556 83.3381 194.482 83.6851 195.446 83.6851H213.473C213.951 83.6857 214.425 83.6009 214.866 83.4356C215.308 83.2703 215.709 83.0277 216.047 82.7217C216.386 82.4157 216.654 82.0524 216.837 81.6524C217.02 81.2524 217.114 80.8236 217.114 80.3906C217.115 79.9572 217.021 79.528 216.838 79.1275C216.656 78.727 216.387 78.3631 216.049 78.0566C215.711 77.7502 215.309 77.5072 214.867 77.3416C214.425 77.176 213.952 77.0911 213.473 77.0917Z" fill="#FACC15" stroke="#263238" stroke-linecap="round" stroke-linejoin="round"/>
<path d="M225.611 47.4147V53.4887H80.4923V47.4147C80.4936 46.6254 80.8406 45.8687 81.457 45.311C82.0735 44.7532 82.909 44.4399 83.7802 44.4399H222.328C223.198 44.4399 224.033 44.7534 224.649 45.3112C225.265 45.8691 225.611 46.6258 225.611 47.4147Z" fill="#999999" stroke="#263238" stroke-linecap="round" stroke-linejoin="round"/>
<path d="M86.632 50.8602C87.8823 50.8602 88.8958 49.9418 88.8958 48.8089C88.8958 47.676 87.8823 46.7576 86.632 46.7576C85.3818 46.7576 84.3682 47.676 84.3682 48.8089C84.3682 49.9418 85.3818 50.8602 86.632 50.8602Z" fill="#FACC15" stroke="#263238" stroke-linecap="round" stroke-linejoin="round"/>
<path d="M92.757 50.8602C94.0073 50.8602 95.0208 49.9418 95.0208 48.8089C95.0208 47.676 94.0073 46.7576 92.757 46.7576C91.5067 46.7576 90.4932 47.676 90.4932 48.8089C90.4932 49.9418 91.5067 50.8602 92.757 50.8602Z" fill="#757575" stroke="#263238" stroke-linecap="round" stroke-linejoin="round"/>
<path d="M98.882 50.8602C100.132 50.8602 101.146 49.9418 101.146 48.8089C101.146 47.676 100.132 46.7576 98.882 46.7576C97.6317 46.7576 96.6182 47.676 96.6182 48.8089C96.6182 49.9418 97.6317 50.8602 98.882 50.8602Z" fill="white" stroke="#263238" stroke-linecap="round" stroke-linejoin="round"/>
<path d="M135.162 53.4886V115.285" stroke="#263238" stroke-linecap="round" stroke-linejoin="round"/>
<path d="M220.672 50.8602H188.944C188.344 50.859 187.77 50.6424 187.346 50.2578C186.923 49.8733 186.685 49.3522 186.685 48.8089C186.686 48.2664 186.925 47.7465 187.348 47.3629C187.772 46.9793 188.345 46.7633 188.944 46.7621H220.672C221.271 46.7621 221.846 46.9776 222.271 47.3613C222.695 47.7451 222.934 48.2657 222.935 48.8089C222.935 49.0783 222.877 49.345 222.763 49.5939C222.649 49.8428 222.482 50.0689 222.272 50.2594C222.062 50.4499 221.813 50.601 221.538 50.7041C221.263 50.8071 220.969 50.8602 220.672 50.8602Z" fill="white" stroke="#263238" stroke-linecap="round" stroke-linejoin="round"/>
<path d="M214.885 72.5229H146.226C145.635 72.5229 145.067 72.3101 144.649 71.9312C144.231 71.5524 143.996 71.0385 143.996 70.5027C143.996 70.2374 144.054 69.9747 144.166 69.7296C144.278 69.4845 144.442 69.2618 144.649 69.0742C144.856 68.8867 145.102 68.7378 145.373 68.6363C145.643 68.5348 145.933 68.4825 146.226 68.4825H214.885C215.177 68.4825 215.467 68.5348 215.738 68.6363C216.008 68.7378 216.254 68.8867 216.461 69.0742C216.668 69.2618 216.832 69.4845 216.944 69.7296C217.056 69.9747 217.114 70.2374 217.114 70.5027C217.114 71.0385 216.879 71.5524 216.461 71.9312C216.043 72.3101 215.476 72.5229 214.885 72.5229Z" fill="#BFBFBF" stroke="#263238" stroke-miterlimit="10"/>
<path d="M183.035 72.5229H146.226C145.635 72.5229 145.067 72.3101 144.649 71.9312C144.231 71.5524 143.996 71.0385 143.996 70.5027C143.996 70.2374 144.054 69.9747 144.166 69.7296C144.278 69.4845 144.442 69.2618 144.649 69.0742C144.856 68.8867 145.102 68.7378 145.373 68.6363C145.643 68.5348 145.933 68.4825 146.226 68.4825H183.035C183.327 68.4825 183.617 68.5348 183.888 68.6363C184.158 68.7378 184.404 68.8867 184.611 69.0742C184.818 69.2618 184.982 69.4845 185.094 69.7296C185.206 69.9747 185.264 70.2374 185.264 70.5027C185.264 71.0385 185.029 71.5524 184.611 71.9312C184.193 72.3101 183.626 72.5229 183.035 72.5229Z" fill="#FACC15" stroke="#263238" stroke-linecap="round" stroke-linejoin="round"/>
<path d="M149.048 101.214H146.025V103.954H149.048V101.214Z" stroke="#263238" stroke-linecap="round" stroke-linejoin="round"/>
<path d="M146.946 102.395L147.392 102.946L148.132 101.991" stroke="#263238" stroke-linecap="round" stroke-linejoin="round"/>
<path opacity="0.3" d="M175.268 101.787H154.678C154.191 101.787 153.796 102.144 153.796 102.584C153.796 103.024 154.191 103.381 154.678 103.381H175.268C175.755 103.381 176.15 103.024 176.15 102.584C176.15 102.144 175.755 101.787 175.268 101.787Z" fill="black"/>
<path d="M101.342 104.22L101.832 101.179H102.425L101.788 104.904H100.808L100.171 101.179H100.822L101.342 104.22Z" fill="#263238"/>
<path d="M103.39 102.75H104.277V103.283H103.39V104.376H104.507V104.904H102.743V101.179H104.507V101.712H103.39V102.75Z" fill="#263238"/>
<path d="M106.252 104.904C106.2 104.761 106.18 104.61 106.193 104.46V103.874C106.193 103.532 106.061 103.403 105.767 103.403H105.546V104.917H104.899V101.192H105.879C106.551 101.192 106.859 101.476 106.859 102.049V102.342C106.882 102.492 106.854 102.644 106.777 102.778C106.701 102.913 106.581 103.022 106.433 103.092C106.756 103.212 106.864 103.487 106.864 103.878V104.455C106.853 104.606 106.876 104.757 106.933 104.899L106.252 104.904ZM105.546 101.711V102.857H105.796C106.041 102.857 106.188 102.759 106.188 102.462V102.093C106.188 101.827 106.085 101.711 105.855 101.711H105.546Z" fill="#263238"/>
<path d="M107.888 104.34V104.904H107.261V104.34H107.888Z" fill="#263238"/>
<path d="M110.216 101.676C110.01 101.676 109.878 101.778 109.878 102.045V102.444H109.27V102.08C109.27 101.485 109.598 101.143 110.25 101.143C110.902 101.143 111.23 101.485 111.23 102.08C111.216 102.363 111.139 102.64 111.001 102.895C110.864 103.149 110.67 103.375 110.431 103.559C110.049 103.932 109.941 104.105 109.941 104.304C109.939 104.331 109.939 104.358 109.941 104.384H111.166V104.913H109.27V104.469C109.279 104.241 109.34 104.018 109.451 103.814C109.561 103.609 109.719 103.429 109.912 103.283C110.104 103.141 110.26 102.963 110.37 102.762C110.48 102.561 110.541 102.34 110.549 102.116C110.549 101.76 110.422 101.676 110.216 101.676Z" fill="#263238"/>
<path d="M112.21 104.34V104.904H111.588V104.34H112.21Z" fill="#263238"/>
<path d="M112.636 102.071C112.636 101.836 112.74 101.61 112.923 101.443C113.107 101.277 113.356 101.183 113.616 101.183C113.876 101.183 114.125 101.277 114.309 101.443C114.493 101.61 114.596 101.836 114.596 102.071V104.011C114.596 104.247 114.493 104.473 114.309 104.639C114.125 104.806 113.876 104.899 113.616 104.899C113.356 104.899 113.107 104.806 112.923 104.639C112.74 104.473 112.636 104.247 112.636 104.011V102.071ZM113.283 104.047C113.283 104.313 113.415 104.415 113.616 104.415C113.817 104.415 113.954 104.313 113.954 104.047V102.036C113.954 101.769 113.822 101.667 113.616 101.667C113.41 101.667 113.283 101.769 113.283 102.036V104.047Z" fill="#263238"/>
<path d="M115.601 103.701V104.047C115.601 104.313 115.728 104.411 115.934 104.411C116.14 104.411 116.272 104.313 116.272 104.047V103.23C116.272 102.964 116.14 102.861 115.934 102.861C115.728 102.861 115.601 102.964 115.601 103.23V103.341H114.988L115.106 101.179H116.811V101.712H115.684L115.63 102.6C115.687 102.513 115.769 102.441 115.868 102.394C115.966 102.346 116.077 102.323 116.189 102.329C116.679 102.329 116.909 102.631 116.909 103.181V104.011C116.93 104.135 116.919 104.26 116.878 104.379C116.837 104.498 116.767 104.607 116.672 104.697C116.578 104.788 116.462 104.857 116.333 104.901C116.204 104.944 116.066 104.961 115.929 104.948C115.292 104.948 114.949 104.606 114.949 104.011V103.701H115.601Z" fill="#263238"/>
<path d="M98 90.0432C96.4636 88.7196 95.2443 87.1236 94.4181 85.3546" stroke="#263238" stroke-linecap="round" stroke-linejoin="round"/>
<path d="M112.117 66.3158C114.56 66.834 116.827 67.8839 118.722 69.3747C120.616 70.8656 122.081 72.7523 122.99 74.8717" stroke="#263238" stroke-linecap="round" stroke-linejoin="round"/>
<path d="M113.42 76.368V72.372L110.128 72.1145C109.935 71.4953 109.662 70.899 109.314 70.3385L111.441 68.0519L108.334 65.268L105.811 67.1905C105.191 66.8776 104.533 66.6303 103.851 66.4535L103.566 63.4742H99.1564L98.8722 66.4535C98.1893 66.6287 97.5314 66.8761 96.9122 67.1905L94.3838 65.268L91.2821 68.083L93.4038 70.3696C93.0577 70.931 92.7847 71.527 92.5904 72.1456L89.3025 72.4031V76.3991L92.5904 76.6566C92.7847 77.2751 93.0577 77.8711 93.4038 78.4326L91.2821 80.7192L94.3838 83.5342L96.9122 81.6116C97.5314 81.926 98.1893 82.1734 98.8722 82.3487L99.1564 85.3279H103.566L103.851 82.3487C104.533 82.1718 105.191 81.9245 105.811 81.6116L108.334 83.5342L111.441 80.7192L109.314 78.4326C109.662 77.872 109.935 77.2758 110.128 76.6566L113.42 76.368ZM101.361 79.032C100.353 79.032 99.3663 78.7609 98.5275 78.253C97.6887 77.7452 97.0349 77.0233 96.6488 76.1787C96.2627 75.3342 96.1617 74.4048 96.3585 73.5082C96.5554 72.6117 97.0412 71.7881 97.7545 71.1417C98.4679 70.4953 99.3768 70.0551 100.366 69.8767C101.356 69.6984 102.381 69.7899 103.313 70.1398C104.246 70.4896 105.042 71.082 105.603 71.8421C106.163 72.6022 106.462 73.4958 106.462 74.41C106.461 75.6354 105.923 76.8104 104.967 77.6769C104.011 78.5435 102.714 79.0308 101.361 79.032Z" fill="#FACC15" stroke="#263238" stroke-linecap="round" stroke-linejoin="round"/>
<path d="M127.949 85.248V82.4197L125.607 82.2377C125.468 81.7944 125.274 81.3669 125.028 80.9634L126.538 79.3384L124.328 77.3359L122.534 78.7034C122.089 78.4809 121.617 78.3051 121.128 78.1795L120.927 76.0616H117.806L117.6 78.1884C117.113 78.3148 116.643 78.4906 116.199 78.7123L114.405 77.3448L112.21 79.3472L113.719 80.9723C113.474 81.3757 113.28 81.8033 113.141 82.2466L110.799 82.4286V85.248L113.141 85.4345C113.281 85.8761 113.474 86.3021 113.719 86.7043L112.21 88.356L114.42 90.3584L116.213 88.9909C116.656 89.2145 117.127 89.3904 117.615 89.5148L117.82 91.6372H120.942L121.143 89.5148C121.633 89.3912 122.105 89.2153 122.549 88.9909L124.342 90.3584L126.552 88.356L125.043 86.731C125.288 86.3287 125.482 85.9027 125.621 85.4611L127.949 85.248ZM119.364 87.1261C118.646 87.1261 117.944 86.9332 117.347 86.5717C116.75 86.2101 116.284 85.6963 116.009 85.0951C115.735 84.494 115.663 83.8324 115.803 83.1942C115.943 82.556 116.289 81.9698 116.797 81.5097C117.304 81.0496 117.951 80.7362 118.656 80.6093C119.36 80.4823 120.09 80.5475 120.753 80.7965C121.417 81.0455 121.984 81.4672 122.383 82.0082C122.782 82.5493 122.995 83.1854 122.995 83.8361C122.996 84.2689 122.903 84.6977 122.721 85.0979C122.539 85.498 122.272 85.8618 121.935 86.1682C121.598 86.4747 121.197 86.7178 120.756 86.8837C120.315 87.0496 119.842 87.135 119.364 87.135V87.1261Z" fill="#FACC15"/>
<mask id="mask1_10_1716" style="mask-type:luminance" maskUnits="userSpaceOnUse" x="110" y="76" width="18" height="16">
<path d="M127.949 85.248V82.4197L125.607 82.2377C125.468 81.7944 125.274 81.3669 125.028 80.9634L126.538 79.3384L124.328 77.3359L122.534 78.7034C122.089 78.4809 121.617 78.3051 121.128 78.1795L120.927 76.0616H117.806L117.6 78.1884C117.113 78.3148 116.643 78.4906 116.199 78.7123L114.405 77.3448L112.21 79.3472L113.719 80.9723C113.474 81.3757 113.28 81.8033 113.141 82.2466L110.799 82.4286V85.248L113.141 85.4345C113.281 85.8761 113.474 86.3021 113.719 86.7043L112.21 88.356L114.42 90.3584L116.213 88.9909C116.656 89.2145 117.127 89.3904 117.615 89.5148L117.82 91.6372H120.942L121.143 89.5148C121.633 89.3912 122.105 89.2153 122.549 88.9909L124.342 90.3584L126.552 88.356L125.043 86.731C125.288 86.3287 125.482 85.9027 125.621 85.4611L127.949 85.248ZM119.364 87.1261C118.646 87.1261 117.944 86.9332 117.347 86.5717C116.75 86.2101 116.284 85.6963 116.009 85.0951C115.735 84.494 115.663 83.8324 115.803 83.1942C115.943 82.556 116.289 81.9698 116.797 81.5097C117.304 81.0496 117.951 80.7362 118.656 80.6093C119.36 80.4823 120.09 80.5475 120.753 80.7965C121.417 81.0455 121.984 81.4672 122.383 82.0082C122.782 82.5493 122.995 83.1854 122.995 83.8361C122.996 84.2689 122.903 84.6977 122.721 85.0979C122.539 85.498 122.272 85.8618 121.935 86.1682C121.598 86.4747 121.197 86.7178 120.756 86.8837C120.315 87.0496 119.842 87.135 119.364 87.135V87.1261Z" fill="white"/>
</mask>
<g mask="url(#mask1_10_1716)">
<path opacity="0.3" d="M127.949 85.248V82.4197L125.607 82.2377C125.468 81.7944 125.274 81.3669 125.028 80.9634L126.538 79.3384L124.328 77.3359L122.534 78.7034C122.089 78.4809 121.617 78.3051 121.128 78.1795L120.927 76.0616H117.806L117.6 78.1884C117.113 78.3148 116.643 78.4906 116.199 78.7123L114.405 77.3448L112.21 79.3472L113.719 80.9723C113.474 81.3757 113.28 81.8033 113.141 82.2466L110.799 82.4286V85.248L113.141 85.4345C113.281 85.8761 113.474 86.3021 113.719 86.7043L112.21 88.356L114.42 90.3584L116.213 88.9909C116.656 89.2145 117.127 89.3904 117.615 89.5148L117.82 91.6372H120.942L121.143 89.5148C121.633 89.3912 122.105 89.2153 122.549 88.9909L124.342 90.3584L126.552 88.356L125.043 86.731C125.288 86.3287 125.482 85.9027 125.621 85.4611L127.949 85.248ZM119.364 87.1261C118.646 87.1261 117.944 86.9332 117.347 86.5717C116.75 86.2101 116.284 85.6963 116.009 85.0951C115.735 84.494 115.663 83.8324 115.803 83.1942C115.943 82.556 116.289 81.9698 116.797 81.5097C117.304 81.0496 117.951 80.7362 118.656 80.6093C119.36 80.4823 120.09 80.5475 120.753 80.7965C121.417 81.0455 121.984 81.4672 122.383 82.0082C122.782 82.5493 122.995 83.1854 122.995 83.8361C122.996 84.2689 122.903 84.6977 122.721 85.0979C122.539 85.498 122.272 85.8618 121.935 86.1682C121.598 86.4747 121.197 86.7178 120.756 86.8837C120.315 87.0496 119.842 87.135 119.364 87.135V87.1261Z" fill="white"/>
</g>
<path d="M127.949 85.248V82.4197L125.607 82.2377C125.468 81.7944 125.274 81.3669 125.028 80.9634L126.538 79.3384L124.328 77.3359L122.534 78.7034C122.089 78.4809 121.617 78.3051 121.128 78.1795L120.927 76.0616H117.806L117.6 78.1884C117.113 78.3148 116.643 78.4906 116.199 78.7123L114.405 77.3448L112.21 79.3472L113.719 80.9723C113.474 81.3757 113.28 81.8033 113.141 82.2466L110.799 82.4286V85.248L113.141 85.4345C113.281 85.8761 113.474 86.3021 113.719 86.7043L112.21 88.356L114.42 90.3584L116.213 88.9909C116.656 89.2145 117.127 89.3904 117.615 89.5148L117.82 91.6372H120.942L121.143 89.5148C121.633 89.3912 122.105 89.2153 122.549 88.9909L124.342 90.3584L126.552 88.356L125.043 86.731C125.288 86.3287 125.482 85.9027 125.621 85.4611L127.949 85.248ZM119.364 87.1261C118.646 87.1261 117.944 86.9332 117.347 86.5717C116.75 86.2101 116.284 85.6963 116.009 85.0951C115.735 84.494 115.663 83.8324 115.803 83.1942C115.943 82.556 116.289 81.9698 116.797 81.5097C117.304 81.0496 117.951 80.7362 118.656 80.6093C119.36 80.4823 120.09 80.5475 120.753 80.7965C121.417 81.0455 121.984 81.4672 122.383 82.0082C122.782 82.5493 122.995 83.1854 122.995 83.8361C122.996 84.2689 122.903 84.6977 122.721 85.0979C122.539 85.498 122.272 85.8618 121.935 86.1682C121.598 86.4747 121.197 86.7178 120.756 86.8837C120.315 87.0496 119.842 87.135 119.364 87.135V87.1261Z" stroke="#263238" stroke-linecap="round" stroke-linejoin="round"/>
<path d="M112.661 91.8547V89.8389L110.995 89.7102C110.897 89.4004 110.759 89.1023 110.583 88.8222L111.661 87.6633L110.088 86.2381L108.809 87.2149C108.5 87.0557 108.171 86.9305 107.829 86.8419L107.687 85.3323H105.463L105.321 86.8419C104.979 86.9305 104.65 87.0557 104.341 87.2149L103.067 86.2381L101.494 87.6633L102.567 88.8222C102.391 89.1023 102.253 89.4004 102.155 89.7102L100.489 89.8389V91.8547L102.155 91.9835C102.253 92.2932 102.391 92.5913 102.567 92.8715L101.494 94.0259L103.067 95.4511L104.341 94.4787C104.65 94.6379 104.979 94.7631 105.321 94.8517L105.463 96.3613H107.687L107.829 94.8517C108.171 94.7631 108.5 94.6379 108.809 94.4787L110.088 95.4511L111.661 94.0259L110.583 92.8715C110.759 92.5913 110.897 92.2932 110.995 91.9835L112.661 91.8547ZM106.555 93.1867C106.045 93.1867 105.545 93.0495 105.121 92.7924C104.696 92.5352 104.365 92.1698 104.17 91.7422C103.974 91.3147 103.923 90.8442 104.023 90.3903C104.122 89.9364 104.368 89.5195 104.729 89.1923C105.091 88.865 105.551 88.6422 106.052 88.5519C106.553 88.4616 107.072 88.5079 107.544 88.685C108.015 88.8621 108.419 89.1621 108.702 89.5468C108.986 89.9316 109.138 90.384 109.138 90.8468C109.138 91.1541 109.071 91.4584 108.941 91.7422C108.811 92.0261 108.621 92.2841 108.381 92.5014C108.142 92.7186 107.857 92.891 107.544 93.0086C107.23 93.1262 106.895 93.1867 106.555 93.1867Z" fill="#FACC15"/>
<mask id="mask2_10_1716" style="mask-type:luminance" maskUnits="userSpaceOnUse" x="100" y="85" width="13" height="12">
<path d="M112.661 91.8547V89.8389L110.995 89.7102C110.897 89.4004 110.759 89.1023 110.583 88.8222L111.661 87.6633L110.088 86.2381L108.809 87.2149C108.5 87.0557 108.171 86.9305 107.829 86.8419L107.687 85.3323H105.463L105.321 86.8419C104.979 86.9305 104.65 87.0557 104.341 87.2149L103.067 86.2381L101.494 87.6633L102.567 88.8222C102.391 89.1023 102.253 89.4004 102.155 89.7102L100.489 89.8389V91.8547L102.155 91.9835C102.253 92.2932 102.391 92.5913 102.567 92.8715L101.494 94.0259L103.067 95.4511L104.341 94.4787C104.65 94.6379 104.979 94.7631 105.321 94.8517L105.463 96.3613H107.687L107.829 94.8517C108.171 94.7631 108.5 94.6379 108.809 94.4787L110.088 95.4511L111.661 94.0259L110.583 92.8715C110.759 92.5913 110.897 92.2932 110.995 91.9835L112.661 91.8547ZM106.555 93.1867C106.045 93.1867 105.545 93.0495 105.121 92.7924C104.696 92.5352 104.365 92.1698 104.17 91.7422C103.974 91.3147 103.923 90.8442 104.023 90.3903C104.122 89.9364 104.368 89.5195 104.729 89.1923C105.091 88.865 105.551 88.6422 106.052 88.5519C106.553 88.4616 107.072 88.5079 107.544 88.685C108.015 88.8621 108.419 89.1621 108.702 89.5468C108.986 89.9316 109.138 90.384 109.138 90.8468C109.138 91.1541 109.071 91.4584 108.941 91.7422C108.811 92.0261 108.621 92.2841 108.381 92.5014C108.142 92.7186 107.857 92.891 107.544 93.0086C107.23 93.1262 106.895 93.1867 106.555 93.1867Z" fill="white"/>
</mask>
<g mask="url(#mask2_10_1716)">
<path opacity="0.5" d="M112.661 91.8547V89.8389L110.995 89.7102C110.897 89.4004 110.759 89.1023 110.583 88.8222L111.661 87.6633L110.088 86.2381L108.809 87.2149C108.5 87.0557 108.171 86.9305 107.829 86.8419L107.687 85.3323H105.463L105.321 86.8419C104.979 86.9305 104.65 87.0557 104.341 87.2149L103.067 86.2381L101.494 87.6633L102.567 88.8222C102.391 89.1023 102.253 89.4004 102.155 89.7102L100.489 89.8389V91.8547L102.155 91.9835C102.253 92.2932 102.391 92.5913 102.567 92.8715L101.494 94.0259L103.067 95.4511L104.341 94.4787C104.65 94.6379 104.979 94.7631 105.321 94.8517L105.463 96.3613H107.687L107.829 94.8517C108.171 94.7631 108.5 94.6379 108.809 94.4787L110.088 95.4511L111.661 94.0259L110.583 92.8715C110.759 92.5913 110.897 92.2932 110.995 91.9835L112.661 91.8547ZM106.555 93.1867C106.045 93.1867 105.545 93.0495 105.121 92.7924C104.696 92.5352 104.365 92.1698 104.17 91.7422C103.974 91.3147 103.923 90.8442 104.023 90.3903C104.122 89.9364 104.368 89.5195 104.729 89.1923C105.091 88.865 105.551 88.6422 106.052 88.5519C106.553 88.4616 107.072 88.5079 107.544 88.685C108.015 88.8621 108.419 89.1621 108.702 89.5468C108.986 89.9316 109.138 90.384 109.138 90.8468C109.138 91.1541 109.071 91.4584 108.941 91.7422C108.811 92.0261 108.621 92.2841 108.381 92.5014C108.142 92.7186 107.857 92.891 107.544 93.0086C107.23 93.1262 106.895 93.1867 106.555 93.1867Z" fill="white"/>
</g>
<path d="M112.661 91.8547V89.8389L110.995 89.7102C110.897 89.4004 110.759 89.1023 110.583 88.8222L111.661 87.6633L110.088 86.2381L108.809 87.2149C108.5 87.0557 108.171 86.9305 107.829 86.8419L107.687 85.3323H105.463L105.321 86.8419C104.979 86.9305 104.65 87.0557 104.341 87.2149L103.067 86.2381L101.494 87.6633L102.567 88.8222C102.391 89.1023 102.253 89.4004 102.155 89.7102L100.489 89.8389V91.8547L102.155 91.9835C102.253 92.2932 102.391 92.5913 102.567 92.8715L101.494 94.0259L103.067 95.4511L104.341 94.4787C104.65 94.6379 104.979 94.7631 105.321 94.8517L105.463 96.3613H107.687L107.829 94.8517C108.171 94.7631 108.5 94.6379 108.809 94.4787L110.088 95.4511L111.661 94.0259L110.583 92.8715C110.759 92.5913 110.897 92.2932 110.995 91.9835L112.661 91.8547ZM106.555 93.1867C106.045 93.1867 105.545 93.0495 105.121 92.7924C104.696 92.5352 104.365 92.1698 104.17 91.7422C103.974 91.3147 103.923 90.8442 104.023 90.3903C104.122 89.9364 104.368 89.5195 104.729 89.1923C105.091 88.865 105.551 88.6422 106.052 88.5519C106.553 88.4616 107.072 88.5079 107.544 88.685C108.015 88.8621 108.419 89.1621 108.702 89.5468C108.986 89.9316 109.138 90.384 109.138 90.8468C109.138 91.1541 109.071 91.4584 108.941 91.7422C108.811 92.0261 108.621 92.2841 108.381 92.5014C108.142 92.7186 107.857 92.891 107.544 93.0086C107.23 93.1262 106.895 93.1867 106.555 93.1867Z" stroke="#263238" stroke-linecap="round" stroke-linejoin="round"/>
<path d="M121.819 74.3877L123 74.8717L123.465 73.9082" stroke="#263238" stroke-linecap="round" stroke-linejoin="round"/>
<path d="M95.5794 85.7985L94.3936 85.3146L93.9281 86.2825" stroke="#263238" stroke-linecap="round" stroke-linejoin="round"/>
<path d="M144.643 63.492V65.672C144.643 65.8763 144.741 65.9473 144.898 65.9473C145.055 65.9473 145.153 65.8763 145.153 65.672V63.492H145.618V65.6454C145.633 65.738 145.625 65.8325 145.594 65.9219C145.563 66.0113 145.511 66.0931 145.44 66.1614C145.369 66.2297 145.283 66.2827 145.186 66.3164C145.09 66.35 144.986 66.3635 144.883 66.3558C144.393 66.3558 144.153 66.0983 144.153 65.6454V63.492H144.643Z" fill="#263238"/>
<path d="M147.402 64.1846V64.5532C147.402 64.9972 147.162 65.2547 146.672 65.2547H146.441V66.3158H145.951V63.492H146.672C147.162 63.492 147.402 63.7362 147.402 64.1846ZM146.422 63.8916V64.8506H146.652C146.809 64.8506 146.892 64.784 146.892 64.5842V64.1402C146.892 63.9404 146.809 63.8738 146.652 63.8738L146.422 63.8916Z" fill="#263238"/>
<path d="M149.156 66.3158H148.666L148.583 65.8008H147.98L147.897 66.3158H147.446L147.936 63.4875H148.651L149.156 66.3158ZM148.039 65.4278H148.529L148.299 63.9981L148.039 65.4278Z" fill="#263238"/>
<path d="M149.381 63.492H150.161C150.651 63.492 150.891 63.7406 150.891 64.1891V65.6188C150.891 66.0628 150.651 66.3203 150.161 66.3203H149.381V63.492ZM149.871 63.896V65.9162H150.151C150.308 65.9162 150.401 65.8408 150.401 65.641V64.1713C150.401 63.9671 150.308 63.896 150.151 63.896H149.871Z" fill="#263238"/>
<path d="M152.782 66.3158H152.292L152.209 65.8008H151.606L151.523 66.3158H151.072L151.562 63.4875H152.277L152.782 66.3158ZM151.665 65.4278H152.155L151.924 63.9981L151.665 65.4278Z" fill="#263238"/>
<path d="M152.699 63.492H154.213V63.896H153.698V66.3203H153.208V63.8916H152.718L152.699 63.492Z" fill="#263238"/>
<path d="M154.424 63.492H154.914V66.3203H154.424V63.492Z" fill="#263238"/>
<path d="M155.717 64.269V66.3158H155.276V63.492H155.894L156.384 65.1836V63.492H156.8V66.3203H156.31L155.717 64.269Z" fill="#263238"/>
<path d="M157.907 64.7396H158.593V65.6276C158.593 66.0716 158.344 66.338 157.863 66.338C157.383 66.338 157.133 66.0805 157.133 65.6276V64.158C157.133 63.714 157.383 63.4476 157.863 63.4476C158.344 63.4476 158.593 63.7051 158.593 64.158V64.4333H158.103V64.1313C158.103 63.9271 158.005 63.8516 157.854 63.8516C157.702 63.8516 157.599 63.9271 157.599 64.1313V65.6543C157.599 65.8585 157.697 65.9295 157.854 65.9295C158.01 65.9295 158.103 65.8585 158.103 65.6543V65.1348H157.883L157.907 64.7396Z" fill="#263238"/>
<path d="M221.524 85.5011L213.38 80.2397L215.698 89.0531L217.369 86.8064L218.908 88.8799L220.137 88.1296L218.599 86.0561L221.524 85.5011Z" fill="#263238"/>
<path d="M124.46 125.048C125.464 123.765 132.079 127.335 131.266 129.87C130.453 132.405 127.807 132.13 126.258 130.785C124.71 129.439 123.387 126.42 124.46 125.048Z" fill="#FACC15"/>
<mask id="mask3_10_1716" style="mask-type:luminance" maskUnits="userSpaceOnUse" x="124" y="124" width="8" height="8">
<path d="M124.46 125.048C125.464 123.765 132.079 127.335 131.266 129.87C130.453 132.405 127.807 132.13 126.258 130.785C124.71 129.439 123.387 126.42 124.46 125.048Z" fill="white"/>
</mask>
<g mask="url(#mask3_10_1716)">
<path opacity="0.3" d="M124.46 125.048C125.464 123.765 132.079 127.335 131.266 129.87C130.453 132.405 127.807 132.13 126.258 130.785C124.71 129.439 123.387 126.42 124.46 125.048Z" fill="black" fill-opacity="0.7"/>
</g>
<path d="M124.46 125.048C125.464 123.765 132.079 127.335 131.266 129.87C130.453 132.405 127.807 132.13 126.258 130.785C124.71 129.439 123.387 126.42 124.46 125.048Z" stroke="#263238" stroke-linecap="round" stroke-linejoin="round"/>
<path d="M127.601 115.205C127.601 115.205 128.581 115.205 130.208 118.628C130.886 120.124 131.056 121.768 130.698 123.352L128.311 133.773L122.5 130.607L125.876 122.961C125.876 122.961 124.107 118.02 127.601 115.205Z" fill="white" stroke="#263238" stroke-linecap="round" stroke-linejoin="round"/>
<path d="M125.249 121.909L121.525 123.028C121.128 123.121 120.349 122.526 120.383 122.14L121.491 110.338C121.513 110.106 121.614 109.886 121.779 109.708C121.945 109.53 122.168 109.403 122.417 109.344L126.547 108.531C126.939 108.438 127.934 108.864 127.9 109.233L126.18 120.897C126.161 121.132 126.061 121.357 125.894 121.538C125.727 121.72 125.501 121.849 125.249 121.909Z" fill="#FACC15"/>
<mask id="mask4_10_1716" style="mask-type:luminance" maskUnits="userSpaceOnUse" x="120" y="108" width="8" height="16">
<path d="M125.249 121.909L121.525 123.028C121.128 123.121 120.349 122.526 120.383 122.14L121.491 110.338C121.513 110.106 121.614 109.886 121.779 109.708C121.945 109.53 122.168 109.403 122.417 109.344L126.547 108.531C126.939 108.438 127.934 108.864 127.9 109.233L126.18 120.897C126.161 121.132 126.061 121.357 125.894 121.538C125.727 121.72 125.501 121.849 125.249 121.909Z" fill="white"/>
</mask>
<g mask="url(#mask4_10_1716)">
<path opacity="0.3" d="M125.249 121.909L121.525 123.028C121.128 123.121 120.349 122.526 120.383 122.14L121.491 110.338C121.513 110.106 121.614 109.886 121.779 109.708C121.945 109.53 122.168 109.403 122.417 109.344L126.547 108.531C126.939 108.438 127.934 108.864 127.9 109.233L126.18 120.897C126.161 121.132 126.061 121.357 125.894 121.538C125.727 121.72 125.501 121.849 125.249 121.909Z" fill="black" fill-opacity="0.7"/>
</g>
<path d="M125.249 121.909L121.525 123.028C121.128 123.121 120.349 122.526 120.383 122.14L121.491 110.338C121.513 110.106 121.614 109.886 121.779 109.708C121.945 109.53 122.168 109.403 122.417 109.344L126.547 108.531C126.939 108.438 127.934 108.864 127.9 109.233L126.18 120.897C126.161 121.132 126.061 121.357 125.894 121.538C125.727 121.72 125.501 121.849 125.249 121.909Z" stroke="#263238" stroke-linecap="round" stroke-linejoin="round"/>
<path d="M125.861 122.202L121.736 123.015C121.644 123.035 121.549 123.036 121.457 123.017C121.366 122.997 121.28 122.959 121.208 122.903C121.137 122.848 121.08 122.779 121.044 122.7C121.008 122.621 120.993 122.536 121.001 122.451L122.103 110.645C122.125 110.412 122.227 110.191 122.394 110.013C122.561 109.835 122.784 109.708 123.034 109.65L127.16 108.838C127.251 108.817 127.347 108.816 127.438 108.836C127.53 108.855 127.615 108.894 127.687 108.949C127.759 109.004 127.815 109.074 127.851 109.152C127.887 109.231 127.902 109.317 127.895 109.402L126.792 121.212C126.769 121.444 126.667 121.664 126.5 121.841C126.334 122.018 126.11 122.144 125.861 122.202Z" fill="#FACC15" stroke="#263238" stroke-linecap="round" stroke-linejoin="round"/>
<path opacity="0.3" d="M123.573 112.829L122.907 112.962C122.892 112.965 122.877 112.965 122.862 112.961C122.847 112.958 122.834 112.951 122.822 112.942C122.811 112.933 122.802 112.922 122.796 112.909C122.79 112.897 122.788 112.883 122.789 112.869L122.97 110.969C122.973 110.931 122.988 110.895 123.015 110.865C123.041 110.836 123.077 110.815 123.117 110.805L123.784 110.676C123.798 110.672 123.814 110.672 123.828 110.675C123.843 110.678 123.857 110.684 123.868 110.692C123.88 110.701 123.889 110.712 123.895 110.725C123.9 110.737 123.903 110.751 123.901 110.765L123.725 112.669C123.72 112.707 123.703 112.742 123.676 112.771C123.649 112.799 123.613 112.82 123.573 112.829Z" fill="black" fill-opacity="0.7"/>
<path d="M129.36 118.748C129.522 117.092 127.861 114.61 126.753 114.61C125.646 114.61 122.279 116.958 122.279 116.958C120.981 117.815 121.623 118.628 121.623 118.628C120.858 119.072 120.643 119.707 120.996 119.995C121.348 120.284 122.466 119.995 122.466 119.995C122.466 119.995 121.348 120.737 121.628 121.097C122.284 121.958 124.45 120.826 124.45 120.826C124.45 120.826 123.196 121.576 123.264 121.714C123.754 122.651 125.793 121.558 125.793 121.558L127.233 122.229C127.232 122.382 127.266 122.534 127.333 122.675C127.399 122.816 127.497 122.943 127.621 123.048C127.744 123.153 127.89 123.234 128.049 123.285C128.208 123.337 128.378 123.358 128.547 123.348" fill="white"/>
<path d="M129.36 118.748C129.522 117.092 127.861 114.61 126.753 114.61C125.646 114.61 122.279 116.958 122.279 116.958C120.981 117.815 121.623 118.628 121.623 118.628C120.858 119.072 120.643 119.707 120.996 119.995C121.348 120.284 122.466 119.995 122.466 119.995C122.466 119.995 121.348 120.737 121.628 121.097C122.284 121.958 124.45 120.826 124.45 120.826C124.45 120.826 123.196 121.576 123.264 121.714C123.754 122.651 125.793 121.558 125.793 121.558L127.233 122.229C127.232 122.382 127.266 122.534 127.333 122.675C127.399 122.816 127.497 122.943 127.621 123.048C127.744 123.153 127.89 123.234 128.049 123.285C128.208 123.337 128.378 123.358 128.547 123.348" stroke="#263238" stroke-linecap="round" stroke-linejoin="round"/>
<path d="M121.642 118.628C121.642 118.628 124.793 116.781 125.195 116.732C125.597 116.683 127.052 116.395 127.052 116.395" fill="white"/>
<path d="M121.642 118.628C121.642 118.628 124.793 116.781 125.195 116.732C125.597 116.683 127.052 116.395 127.052 116.395" stroke="#263238" stroke-linecap="round" stroke-linejoin="round"/>
<path d="M122.5 119.995C122.5 119.995 125.063 118.797 125.533 118.797C126.235 118.727 126.933 118.619 127.621 118.473" fill="white"/>
<path d="M122.5 119.995C122.5 119.995 125.063 118.797 125.533 118.797C126.235 118.727 126.933 118.619 127.621 118.473" stroke="#263238" stroke-linecap="round" stroke-linejoin="round"/>
<path d="M124.46 120.826C124.758 120.632 125.075 120.463 125.406 120.32C126.017 120.279 126.632 120.279 127.243 120.32" fill="white"/>
<path d="M124.46 120.826C124.758 120.632 125.075 120.463 125.406 120.32C126.017 120.279 126.632 120.279 127.243 120.32" stroke="#263238" stroke-linecap="round" stroke-linejoin="round"/>
<path d="M99.2495 120.768C104.149 120.835 115.419 136.752 115.419 136.752L122.5 128.76L124.46 125.057C124.46 125.057 125.44 131.717 131.266 129.879C131.266 129.879 126.136 147.364 120.378 149.473C114.621 151.582 98.6566 136.752 98.6566 136.752L99.2495 120.768Z" fill="#FACC15"/>
<mask id="mask5_10_1716" style="mask-type:luminance" maskUnits="userSpaceOnUse" x="98" y="120" width="34" height="30">
<path d="M99.2495 120.768C104.149 120.835 115.419 136.752 115.419 136.752L122.5 128.76L124.46 125.057C124.46 125.057 125.44 131.717 131.266 129.879C131.266 129.879 126.136 147.364 120.378 149.473C114.621 151.582 98.6566 136.752 98.6566 136.752L99.2495 120.768Z" fill="white"/>
</mask>
<g mask="url(#mask5_10_1716)">
<path opacity="0.2" d="M99.6513 137.64C101.675 139.438 106.467 143.55 111.137 146.467C109.765 142.306 106.007 137.875 106.007 137.875C104.84 137.525 103.194 134.359 103.194 134.359C102.42 134.625 101.322 132.427 101.322 132.427C100.421 133.12 99.9159 135.167 99.6513 137.64Z" fill="black" fill-opacity="0.7"/>
<path opacity="0.2" d="M115.081 140.815C114.893 139.413 115.032 137.991 115.488 136.641L115.405 136.739C115.405 136.739 114.64 135.66 113.445 134.075C113.107 136.135 112.945 139.589 115.081 140.815Z" fill="black" fill-opacity="0.7"/>
</g>
<path d="M99.2495 120.768C104.149 120.835 115.419 136.752 115.419 136.752L122.5 128.76L124.46 125.057C124.46 125.057 125.44 131.717 131.266 129.879C131.266 129.879 126.136 147.364 120.378 149.473C114.621 151.582 98.6566 136.752 98.6566 136.752L99.2495 120.768Z" stroke="#263238" stroke-linecap="round" stroke-linejoin="round"/>
<path d="M48.4659 189.255C48.4659 189.255 45.3642 194.916 45.3642 196.248C45.3642 197.58 44.8448 198.179 42.1302 198.179C39.4156 198.179 32.6977 198.233 31.6638 197.798H25.382C23.912 197.798 23.3142 196.519 24.2158 196.692C25.1174 196.865 31.7863 195.196 33.5993 194.521C35.4123 193.846 38.3915 193.047 39.9987 191.639C41.6059 190.232 43.5512 184.979 43.5512 184.979L48.4659 189.255Z" fill="white" stroke="#263238" stroke-linecap="round" stroke-linejoin="round"/>
<path d="M31.6638 197.793C31.6638 196.141 33.6238 196.932 36.5638 196.244C38.4601 195.8 38.661 195.2 38.661 195.2" stroke="#263238" stroke-linecap="round" stroke-linejoin="round"/>
<path d="M101.244 130.98C101.44 134.212 101.523 137.569 101.665 140.073C102.018 146.125 106.487 163.814 106.487 163.814C106.487 163.814 111.387 166.478 111.632 171.362C111.877 176.246 81.9329 190.01 73.9018 186.085C65.8707 182.16 66.9487 170.758 66.9487 170.758C66.9487 170.758 55.0613 127.246 59.927 123.747C64.7927 120.248 66.4342 120.684 78.89 119.121C91.3458 117.558 99.2495 120.768 99.2495 120.768C99.9565 121.387 100.452 122.178 100.675 123.046" fill="#FACC15"/>
<mask id="mask6_10_1716" style="mask-type:luminance" maskUnits="userSpaceOnUse" x="58" y="118" width="54" height="69">
<path d="M101.244 130.98C101.44 134.212 101.523 137.569 101.665 140.073C102.018 146.125 106.487 163.814 106.487 163.814C106.487 163.814 111.387 166.478 111.632 171.362C111.877 176.246 81.9329 190.01 73.9018 186.085C65.8707 182.16 66.9487 170.758 66.9487 170.758C66.9487 170.758 55.0613 127.246 59.927 123.747C64.7927 120.248 66.4342 120.684 78.89 119.121C91.3458 117.558 99.2495 120.768 99.2495 120.768C99.9565 121.387 100.452 122.178 100.675 123.046" fill="white"/>
</mask>
<g mask="url(#mask6_10_1716)">
<path opacity="0.2" d="M66.9438 170.731C66.9438 170.731 65.8609 182.133 73.8969 186.058C81.9329 189.983 111.891 176.215 111.627 171.335C111.362 166.456 106.487 163.787 106.487 163.787C106.487 163.787 106.046 162.033 105.423 159.445C101.175 161.94 91.4928 167.117 85.1914 166.549C85.1914 166.549 95.6823 169.919 102.39 167.024C109.098 164.129 99.6023 170.833 97.6668 170.727C95.7313 170.62 81.2861 168.254 78.6695 169.484C76.0529 170.714 70.2366 179.758 70.2366 179.758C70.2366 179.758 66.7086 172.574 67.4926 168.165C67.4926 168.165 67.5955 154.436 65.9099 146.409C65.9099 146.409 69.9426 140.104 65.4836 135.207C63.8372 133.4 62.0536 137.12 60.4268 142.533C62.8278 155.657 66.9438 170.731 66.9438 170.731Z" fill="black" fill-opacity="0.7"/>
</g>
<path d="M101.244 130.98C101.44 134.212 101.523 137.569 101.665 140.073C102.018 146.125 106.487 163.814 106.487 163.814C106.487 163.814 111.387 166.478 111.632 171.362C111.877 176.246 81.9329 190.01 73.9018 186.085C65.8707 182.16 66.9487 170.758 66.9487 170.758C66.9487 170.758 55.0613 127.246 59.927 123.747C64.7927 120.248 66.4342 120.684 78.89 119.121C91.3458 117.558 99.2495 120.768 99.2495 120.768C99.9565 121.387 100.452 122.178 100.675 123.046" stroke="#263238" stroke-linecap="round" stroke-linejoin="round"/>
<path d="M107.266 167.965C108.02 167.876 110.064 169.049 110.064 169.049C110.064 169.049 143.109 161.358 148.078 163.8C158.049 168.684 152.733 178.35 150.665 181.116C148.597 183.883 118.09 196.976 107.501 197.225C96.9122 197.473 77.4886 194.823 73.6911 189.171C69.8936 183.519 73.7793 177.249 79.0811 172.649C84.4711 167.965 95.0453 172.063 98.6811 171.126C103.326 169.919 104.958 168.227 107.266 167.965Z" fill="#263238"/>
<path d="M79.625 194.272L79.135 196.204C79.135 196.204 80.4335 199.547 86.1518 200.089C91.8701 200.63 95.2511 201.785 97.9951 201.931C99.4429 202.033 100.898 202.012 102.341 201.869L102.9 201.132L79.625 194.272Z" fill="white" stroke="#263238" stroke-linecap="round" stroke-linejoin="round"/>
<path d="M112.803 194.068L102.9 201.132C98.1232 200.764 93.3769 200.122 88.69 199.209C84.0007 198.224 79.9043 196.812 79.6789 194.88C79.3359 191.937 82.8002 191.133 86.926 191.249C87.6953 191.249 88.4842 191.315 89.2829 191.391C95.8832 192.034 104.267 188.727 104.267 188.727L112.803 194.068Z" fill="#FACC15"/>
<mask id="mask7_10_1716" style="mask-type:luminance" maskUnits="userSpaceOnUse" x="79" y="188" width="34" height="14">
<path d="M112.803 194.068L102.9 201.132C98.1232 200.764 93.3769 200.122 88.69 199.209C84.0007 198.224 79.9043 196.812 79.6789 194.88C79.3359 191.937 82.8002 191.133 86.926 191.249C87.6953 191.249 88.4842 191.315 89.2829 191.391C95.8832 192.034 104.267 188.727 104.267 188.727L112.803 194.068Z" fill="white"/>
</mask>
<g mask="url(#mask7_10_1716)">
<path opacity="0.2" d="M79.6887 194.787C81.6111 195.436 83.4564 196.258 85.1963 197.243C85.1963 197.243 94.3936 201.532 108.525 197.114L112.808 194.068L104.282 188.7C104.282 188.7 95.8979 192.003 89.2976 191.364C88.4989 191.289 87.71 191.235 86.9407 191.222C82.8492 191.107 79.4045 191.897 79.6887 194.787Z" fill="black" fill-opacity="0.7"/>
</g>
<path d="M112.803 194.068L102.9 201.132C98.1232 200.764 93.3769 200.122 88.69 199.209C84.0007 198.224 79.9043 196.812 79.6789 194.88C79.3359 191.937 82.8002 191.133 86.926 191.249C87.6953 191.249 88.4842 191.315 89.2829 191.391C95.8832 192.034 104.267 188.727 104.267 188.727L112.803 194.068Z" stroke="#263238" stroke-linecap="round" stroke-linejoin="round"/>
<path d="M103.576 196.843C105.36 197.105 103.4 200.417 100.979 199.409C98.5586 198.401 101.788 196.581 103.576 196.843Z" fill="white"/>
<mask id="mask8_10_1716" style="mask-type:luminance" maskUnits="userSpaceOnUse" x="100" y="196" width="5" height="4">
<path d="M103.576 196.843C105.36 197.105 103.4 200.417 100.979 199.409C98.5586 198.401 101.788 196.581 103.576 196.843Z" fill="white"/>
</mask>
<g mask="url(#mask8_10_1716)">
<path opacity="0.2" d="M100.224 198.876C101.517 198.733 102.801 198.53 104.071 198.268C104.414 197.62 104.335 196.936 103.581 196.843C102.076 196.621 99.5578 197.873 100.224 198.876Z" fill="black" fill-opacity="0.7"/>
</g>
<path d="M103.576 196.843C105.36 197.105 103.4 200.417 100.979 199.409C98.5586 198.401 101.788 196.581 103.576 196.843Z" stroke="#263238" stroke-linecap="round" stroke-linejoin="round"/>
<path d="M88.69 199.183C84.0007 198.197 79.9043 196.785 79.6789 194.854C79.3359 191.91 82.8002 191.106 86.926 191.222C87.122 191.364 91.14 194.88 88.69 199.183Z" fill="white"/>
<mask id="mask9_10_1716" style="mask-type:luminance" maskUnits="userSpaceOnUse" x="79" y="191" width="11" height="9">
<path d="M88.69 199.183C84.0007 198.197 79.9043 196.785 79.6789 194.854C79.3359 191.91 82.8002 191.106 86.926 191.222C87.122 191.364 91.14 194.88 88.69 199.183Z" fill="white"/>
</mask>
<g mask="url(#mask9_10_1716)">
<path opacity="0.2" d="M79.6887 194.787C81.6111 195.435 83.4564 196.258 85.1963 197.243C86.435 197.761 87.7332 198.154 89.0673 198.415C90.65 194.472 87.1073 191.368 86.9407 191.222C82.8492 191.106 79.4045 191.897 79.6887 194.787Z" fill="black" fill-opacity="0.7"/>
</g>
<path d="M88.69 199.183C84.0007 198.197 79.9043 196.785 79.6789 194.854C79.3359 191.91 82.8002 191.106 86.926 191.222C87.122 191.364 91.14 194.88 88.69 199.183Z" stroke="#263238" stroke-linecap="round" stroke-linejoin="round"/>
<path d="M92.0514 195.529H92.022C91.8962 195.529 91.7751 195.485 91.6839 195.407C91.5927 195.328 91.5383 195.221 91.532 195.107C91.434 193.251 89.8562 191.746 89.8415 191.728C89.7628 191.642 89.7231 191.531 89.7303 191.42C89.7375 191.308 89.7911 191.202 89.8804 191.125C89.9697 191.047 90.088 191.003 90.2117 191.002C90.3353 191 90.4551 191.04 90.5471 191.115C90.6255 191.186 92.3944 192.869 92.5071 195.062C92.5138 195.179 92.4698 195.293 92.3846 195.38C92.2993 195.467 92.1797 195.521 92.0514 195.529Z" fill="white" stroke="#263238" stroke-linecap="round" stroke-linejoin="round"/>
<path d="M94.0114 195.635H93.9722C93.8422 195.635 93.7176 195.588 93.6257 195.505C93.5338 195.422 93.4822 195.309 93.4822 195.191C93.4381 193.318 92.0122 191.697 91.9828 191.679C91.9096 191.588 91.8776 191.474 91.8934 191.362C91.9092 191.25 91.9715 191.148 92.0677 191.076C92.1639 191.004 92.2867 190.968 92.4111 190.976C92.5355 190.983 92.6522 191.033 92.7374 191.115C93.7486 192.281 94.3496 193.695 94.4622 195.173C94.4676 195.288 94.4237 195.401 94.3396 195.487C94.2555 195.573 94.1379 195.626 94.0114 195.635Z" fill="white" stroke="#263238" stroke-linecap="round" stroke-linejoin="round"/>
<path d="M96.3585 195.413C96.2292 195.423 96.1009 195.386 96.0017 195.31C95.9025 195.235 95.8405 195.126 95.8293 195.009C95.6774 193.455 94.2172 191.457 94.2025 191.457C94.1624 191.409 94.1336 191.354 94.1179 191.295C94.1022 191.236 94.0998 191.176 94.111 191.116C94.1221 191.056 94.1466 191 94.1828 190.949C94.2191 190.898 94.2663 190.855 94.3217 190.821C94.3771 190.788 94.4395 190.765 94.505 190.754C94.5705 190.743 94.6378 190.744 94.7028 190.757C94.7678 190.771 94.829 190.796 94.8829 190.832C94.9367 190.867 94.982 190.912 95.0159 190.964C95.0845 191.053 96.6329 193.158 96.8044 194.96C96.8074 195.073 96.763 195.183 96.6801 195.267C96.5973 195.351 96.4823 195.403 96.3585 195.413Z" fill="white" stroke="#263238" stroke-linecap="round" stroke-linejoin="round"/>
<path d="M98.5733 195.2C98.5295 195.207 98.4848 195.207 98.441 195.2C98.3131 195.181 98.1989 195.116 98.1236 195.02C98.0483 194.924 98.0179 194.806 98.0392 194.69C98.3871 192.803 96.4565 191.186 96.4369 191.173C96.3401 191.094 96.2818 190.984 96.2749 190.866C96.268 190.748 96.3131 190.633 96.4001 190.545C96.4872 190.457 96.6092 190.404 96.7392 190.398C96.8692 190.392 96.9967 190.433 97.0935 190.511C97.1866 190.591 99.4455 192.465 99.0094 194.836C98.9906 194.932 98.9378 195.019 98.859 195.085C98.7803 195.15 98.6799 195.191 98.5733 195.2Z" fill="white" stroke="#263238" stroke-linecap="round" stroke-linejoin="round"/>
<path d="M100.984 194.676C100.93 194.683 100.876 194.683 100.822 194.676C100.76 194.663 100.7 194.639 100.648 194.605C100.595 194.571 100.551 194.528 100.517 194.479C100.483 194.429 100.46 194.374 100.449 194.317C100.438 194.259 100.44 194.2 100.455 194.143C100.881 192.461 99.0535 190.56 99.0339 190.543C98.987 190.5 98.9503 190.449 98.9259 190.393C98.9016 190.337 98.89 190.277 98.892 190.216C98.8941 190.156 98.9096 190.097 98.9377 190.042C98.9658 189.988 99.0059 189.939 99.0555 189.899C99.1051 189.859 99.1633 189.828 99.2263 189.809C99.2894 189.79 99.3561 189.782 99.4224 189.787C99.4887 189.792 99.5531 189.81 99.6119 189.838C99.6706 189.866 99.7224 189.905 99.764 189.952C99.8571 190.045 101.949 192.212 101.41 194.343C101.386 194.432 101.332 194.511 101.255 194.571C101.179 194.63 101.084 194.667 100.984 194.676Z" fill="white" stroke="#263238" stroke-linecap="round" stroke-linejoin="round"/>
<path d="M151.9 191.364L152.611 193.238C152.611 193.238 151.704 196.688 146.084 197.775C140.463 198.863 137.229 200.324 134.515 200.732C133.088 200.973 131.639 201.09 130.188 201.083L129.541 200.382L151.9 191.364Z" fill="white" stroke="#263238" stroke-linecap="round" stroke-linejoin="round"/>
<path d="M118.894 194.339L129.556 200.399C134.26 199.579 138.901 198.489 143.452 197.136C148.004 195.711 151.915 193.917 151.915 191.972C151.915 189.015 148.372 188.545 144.285 189.051C143.521 189.14 142.742 189.268 141.958 189.419C135.47 190.685 126.768 188.198 126.768 188.198L118.894 194.339Z" fill="#FACC15"/>
<mask id="mask10_10_1716" style="mask-type:luminance" maskUnits="userSpaceOnUse" x="118" y="188" width="34" height="13">
<path d="M118.894 194.339L129.556 200.399C134.26 199.579 138.901 198.489 143.452 197.136C148.004 195.711 151.915 193.917 151.915 191.972C151.915 189.015 148.372 188.545 144.285 189.051C143.521 189.14 142.742 189.268 141.958 189.419C135.47 190.685 126.768 188.198 126.768 188.198L118.894 194.339Z" fill="white"/>
</mask>
<g mask="url(#mask10_10_1716)">
<path opacity="0.2" d="M118.894 194.339L125.166 197.891C130.251 196.464 134.709 193.619 137.906 189.761C134.127 189.688 130.376 189.156 126.753 188.181L118.894 194.339Z" fill="black" fill-opacity="0.7"/>
</g>
<path d="M118.894 194.339L129.556 200.399C134.26 199.579 138.901 198.489 143.452 197.136C148.004 195.711 151.915 193.917 151.915 191.972C151.915 189.015 148.372 188.545 144.285 189.051C143.521 189.14 142.742 189.268 141.958 189.419C135.47 190.685 126.768 188.198 126.768 188.198L118.894 194.339Z" stroke="#263238" stroke-linecap="round" stroke-linejoin="round"/>
<path d="M143.452 197.136C148.005 195.711 151.915 193.917 151.915 191.972C151.915 189.015 148.372 188.545 144.285 189.051C144.124 189.219 140.557 193.082 143.452 197.136Z" fill="white" stroke="#263238" stroke-linecap="round" stroke-linejoin="round"/>
<path d="M139.699 193.819H139.728C139.793 193.816 139.856 193.801 139.914 193.776C139.972 193.75 140.024 193.714 140.067 193.671C140.109 193.627 140.142 193.576 140.163 193.521C140.184 193.465 140.193 193.407 140.189 193.349C140.071 191.497 141.463 189.846 141.478 189.832C141.517 189.786 141.546 189.733 141.564 189.677C141.581 189.621 141.585 189.562 141.577 189.504C141.569 189.446 141.549 189.39 141.517 189.34C141.485 189.289 141.443 189.244 141.392 189.208C141.341 189.173 141.283 189.146 141.221 189.131C141.159 189.115 141.094 189.111 141.03 189.118C140.966 189.125 140.904 189.144 140.848 189.173C140.792 189.201 140.743 189.24 140.703 189.286C140.635 189.362 139.072 191.209 139.233 193.398C139.239 193.508 139.29 193.612 139.376 193.69C139.462 193.768 139.577 193.814 139.699 193.819Z" fill="white" stroke="#263238" stroke-linecap="round" stroke-linejoin="round"/>
<path d="M137.763 194.112H137.803C137.932 194.102 138.051 194.046 138.135 193.956C138.219 193.866 138.259 193.75 138.249 193.633C138.211 192.352 138.589 191.089 139.336 190.001C139.372 189.952 139.397 189.897 139.409 189.84C139.421 189.782 139.42 189.723 139.407 189.666C139.394 189.608 139.368 189.554 139.332 189.505C139.295 189.457 139.249 189.416 139.194 189.384C139.086 189.32 138.954 189.298 138.827 189.322C138.7 189.346 138.589 189.414 138.518 189.513C137.647 190.766 137.213 192.228 137.273 193.708C137.285 193.819 137.341 193.922 137.432 193.997C137.522 194.072 137.641 194.113 137.763 194.112Z" fill="white" stroke="#263238" stroke-linecap="round" stroke-linejoin="round"/>
<path d="M135.402 194.112C135.532 194.112 135.656 194.066 135.748 193.982C135.84 193.899 135.892 193.786 135.892 193.668C135.862 192.105 137.082 189.988 137.097 189.965C137.129 189.914 137.149 189.857 137.156 189.798C137.163 189.739 137.157 189.68 137.138 189.623C137.12 189.566 137.089 189.513 137.047 189.468C137.006 189.422 136.955 189.384 136.897 189.357C136.839 189.329 136.776 189.312 136.71 189.307C136.645 189.302 136.58 189.309 136.518 189.327C136.456 189.346 136.398 189.375 136.349 189.414C136.299 189.452 136.259 189.499 136.23 189.552C136.176 189.646 134.877 191.892 134.912 193.682C134.916 193.797 134.969 193.907 135.06 193.987C135.152 194.067 135.274 194.112 135.402 194.112Z" fill="white" stroke="#263238" stroke-linecap="round" stroke-linejoin="round"/>
<path d="M133.172 194.112C133.216 194.117 133.26 194.117 133.304 194.112C133.367 194.097 133.425 194.071 133.476 194.035C133.526 193.999 133.569 193.954 133.601 193.904C133.633 193.853 133.653 193.797 133.661 193.739C133.669 193.681 133.665 193.622 133.647 193.566C133.084 191.724 134.819 189.934 134.833 189.917C134.92 189.829 134.965 189.714 134.959 189.597C134.952 189.48 134.895 189.37 134.799 189.291C134.751 189.251 134.695 189.22 134.634 189.2C134.573 189.18 134.509 189.172 134.444 189.174C134.379 189.177 134.316 189.192 134.257 189.217C134.199 189.242 134.146 189.278 134.103 189.322C134.02 189.41 131.991 191.488 132.702 193.802C132.733 193.892 132.796 193.971 132.881 194.027C132.965 194.083 133.067 194.113 133.172 194.112Z" fill="white" stroke="#263238" stroke-linecap="round" stroke-linejoin="round"/>
<path d="M130.717 193.819C130.772 193.819 130.827 193.81 130.879 193.793C131.002 193.754 131.103 193.673 131.16 193.568C131.217 193.462 131.225 193.34 131.183 193.229C130.565 191.599 132.163 189.535 132.163 189.513C132.225 189.417 132.246 189.304 132.221 189.195C132.195 189.086 132.126 188.99 132.026 188.925C131.927 188.861 131.804 188.832 131.682 188.845C131.561 188.859 131.449 188.913 131.369 188.997C131.291 189.1 129.458 191.453 130.242 193.517C130.275 193.607 130.339 193.685 130.425 193.739C130.51 193.793 130.613 193.821 130.717 193.819Z" fill="white" stroke="#263238" stroke-linecap="round" stroke-linejoin="round"/>
<path d="M128.38 196.221C126.636 196.665 128.968 199.773 131.256 198.526C133.545 197.278 130.139 195.804 128.38 196.221Z" fill="white" stroke="#263238" stroke-linecap="round" stroke-linejoin="round"/>
<path d="M81.83 170.305C88.2882 169.279 105.443 177.458 115.954 182.906C116.985 182.387 117.969 181.793 118.894 181.13C121.314 179.176 130.551 168.418 136.921 165.958L148.553 179.749C145.932 183.075 138.175 186.746 130.423 189.774C129.042 191.843 127.416 193.768 125.572 195.515C120.814 199.955 118.874 197.465 118.874 197.465C118.874 197.465 115.865 197.158 111.426 196.608C111.245 196.997 110.926 197.321 110.52 197.528C110.114 197.736 109.643 197.815 109.182 197.753C108.604 197.669 107.491 196.923 106.242 195.933C95.0306 194.405 79.821 191.857 75.7099 188.855C69.0116 183.963 76.1019 171.211 81.83 170.305Z" fill="#263238"/>
<path d="M64.4938 130.98C65.709 134.532 65.807 139.62 64.8123 143.59C64.8123 143.59 60.4611 161.03 59.9123 164.826C59.3635 168.622 52.0184 183.372 51.6313 188.194L48.2454 192.607C48.2454 192.607 43.2964 192.27 39.9987 188.869L42.3262 184.193C42.3262 184.193 44.4577 177.005 45.2319 176.006C46.0061 175.007 48.5541 161.447 49.4116 159.232C50.2691 157.016 55.4239 127.486 59.9221 123.712C59.9221 123.712 61.1226 123.623 61.6126 124.48" fill="#FACC15"/>
<path d="M64.4938 130.98C65.709 134.532 65.807 139.62 64.8123 143.59C64.8123 143.59 60.4611 161.03 59.9123 164.826C59.3635 168.622 52.0184 183.372 51.6313 188.194L48.2454 192.607C48.2454 192.607 43.2964 192.27 39.9987 188.869L42.3262 184.193C42.3262 184.193 44.4577 177.005 45.2319 176.006C46.0061 175.007 48.5541 161.447 49.4116 159.232C50.2691 157.016 55.4239 127.486 59.9221 123.712C59.9221 123.712 61.1226 123.623 61.6126 124.48" stroke="#263238" stroke-linecap="round" stroke-linejoin="round"/>
<path d="M129.909 187.124C127.616 186.262 124.323 187.124 124.323 187.124C124.323 187.124 113.508 182.857 106.1 178.794C98.6909 174.732 88.0726 171.69 88.0726 171.69C84.0007 171.428 82.0652 171.513 80.1248 173.466" stroke="white" stroke-linecap="round" stroke-linejoin="round"/>
<path d="M75.1807 184.975C75.1807 184.975 75.1268 187.95 79.7818 190.014" stroke="white" stroke-linecap="round" stroke-linejoin="round"/>
<path d="M126.552 172.561C126.552 172.561 119.202 177.378 117.732 180.553C116.287 181.103 114.891 181.755 113.557 182.502" stroke="white" stroke-linecap="round" stroke-linejoin="round"/>
<path d="M117.198 176.565C116.655 177.948 116.565 179.444 116.938 180.872" stroke="white" stroke-linecap="round" stroke-linejoin="round"/>
<path d="M118.894 173.44C118.493 173.968 118.141 174.525 117.84 175.105" stroke="white" stroke-linecap="round" stroke-linejoin="round"/>
<path d="M108.427 173C108.427 173 105.977 175.975 105.355 178.395" stroke="white" stroke-linecap="round" stroke-linejoin="round"/>
<path d="M94.7317 191.004C93.8157 190.957 92.904 190.856 92.0024 190.702" stroke="white" stroke-linecap="round" stroke-linejoin="round"/>
<path d="M117.796 188.869C110.829 190.126 103.762 190.868 96.6623 191.089" stroke="white" stroke-linecap="round" stroke-linejoin="round"/>
<path d="M115.405 136.752C114.986 137.483 114.767 138.295 114.767 139.118C114.767 139.942 114.986 140.754 115.405 141.485" stroke="#263238" stroke-linecap="round" stroke-linejoin="round"/>
<path d="M76.5674 123.432C79.9484 125.332 84.6916 126.94 88.2392 124.471" stroke="#263238" stroke-linecap="round" stroke-linejoin="round"/>
<path d="M73.8969 121.709C74.3575 122.064 74.8376 122.393 75.3276 122.708" stroke="#263238" stroke-linecap="round" stroke-linejoin="round"/>
<path d="M102.978 133.555C102.778 135.247 102.606 137.263 101.602 138.746" stroke="#263238" stroke-linecap="round" stroke-linejoin="round"/>
<path d="M103.194 131.109C103.194 131.553 103.13 132.028 103.091 132.49" stroke="#263238" stroke-linecap="round" stroke-linejoin="round"/>
<path d="M105.017 138.746C105.017 138.746 103.846 139.869 101.631 139.354" stroke="#263238" stroke-linecap="round" stroke-linejoin="round"/>
<path d="M67.3309 134.354C67.3309 134.354 67.1839 141.645 64.4938 144.851" stroke="#263238" stroke-linecap="round" stroke-linejoin="round"/>
<path d="M82.6434 166.056L80.7324 165.643" stroke="#263238" stroke-linecap="round" stroke-linejoin="round"/>
<path d="M106.487 163.8C103.738 163.836 101.288 165.612 98.8379 167.388C93.9379 170.052 89.0379 166.5 83.9419 166.3" stroke="#263238" stroke-linecap="round" stroke-linejoin="round"/>
<path d="M68.4922 162.397C68.0659 165.19 67.5955 167.979 66.9438 170.731" stroke="#263238" stroke-linecap="round" stroke-linejoin="round"/>
<path d="M68.9773 158.952C68.894 159.627 68.8009 160.284 68.7029 160.972" stroke="#263238" stroke-linecap="round" stroke-linejoin="round"/>
<path d="M95.8538 149.233C92.7619 153.992 88.3225 159.423 82.0652 160.777" stroke="#263238" stroke-linecap="round" stroke-linejoin="round"/>
<path d="M99.2201 143.137C98.4565 144.819 97.5811 146.457 96.5986 148.043" stroke="#263238" stroke-linecap="round" stroke-linejoin="round"/>
<path d="M59.1332 140.428C56.7861 145.632 54.39 151.848 50.176 156.102" stroke="#263238" stroke-linecap="round" stroke-linejoin="round"/>
<path d="M60.76 136.752C60.4366 137.529 60.0985 138.306 59.78 139.083" stroke="#263238" stroke-linecap="round" stroke-linejoin="round"/>
<path d="M53.1797 171.575C53.1797 171.575 47.5594 175.762 45.2319 176.015" stroke="#263238" stroke-linecap="round" stroke-linejoin="round"/>
<path d="M43.7227 189.353C42.6594 188.824 41.405 188.158 40.866 187.133" stroke="#263238" stroke-linecap="round" stroke-linejoin="round"/>
<path d="M47.5937 190.893C46.7509 190.627 45.9228 190.321 45.1094 189.983" stroke="#263238" stroke-linecap="round" stroke-linejoin="round"/>
<path d="M124.994 132.072C125.603 132.643 126.389 133.031 127.248 133.187" stroke="#263238" stroke-linecap="round" stroke-linejoin="round"/>
<path d="M122.5 128.76C122.884 129.514 123.348 130.233 123.887 130.904" stroke="#263238" stroke-linecap="round" stroke-linejoin="round"/>
<path d="M74.6221 119.796C74.6221 119.796 78.0521 124.276 83.9321 123.663C87.1759 123.321 86.8427 121.057 86.8427 121.057C86.3823 120.79 86.0365 120.389 85.8627 119.92C85.5148 119.116 85.3727 117.807 86.191 115.76C86.191 115.702 86.2351 115.64 86.2596 115.582C87.1808 113.362 76.0823 110.223 76.0823 110.223C76.0823 110.223 77.42 116.022 74.6221 119.796Z" fill="white" stroke="#263238" stroke-linecap="round" stroke-linejoin="round"/>
<path d="M79.9974 114.215C79.9974 114.215 82.0554 118.863 85.8774 119.92C85.5295 119.116 85.3874 117.807 86.2057 115.76L79.9974 114.215Z" fill="#263238"/>
<path d="M78.9831 113.122C78.7234 115.116 84.329 118.131 87.612 118.122C89.1114 118.122 91.189 115.498 92.071 111.63C92.512 109.677 91.1939 107.763 92.2621 105.042C93.1735 102.715 91.3899 95.7752 83.8292 95.2069C73.0247 94.3944 71.7654 104.891 76.5527 111.972" fill="white"/>
<path d="M78.9831 113.122C78.7234 115.116 84.329 118.131 87.612 118.122C89.1114 118.122 91.189 115.498 92.071 111.63C92.512 109.677 91.1939 107.763 92.2621 105.042C93.1735 102.715 91.3899 95.7752 83.8292 95.2069C73.0247 94.3944 71.7654 104.891 76.5527 111.972" stroke="#263238" stroke-linecap="round" stroke-linejoin="round"/>
<path d="M92.4826 104.518C92.1884 104.15 91.7805 103.869 91.3105 103.711C90.8404 103.553 90.3293 103.525 89.8415 103.63" stroke="#263238" stroke-linecap="round" stroke-linejoin="round"/>
<path d="M86.24 103.576C86.24 103.576 84.0105 103.372 82.6532 104.518" stroke="#263238" stroke-linecap="round" stroke-linejoin="round"/>
<path d="M89.2584 104.953C89.0624 106.973 91.5859 110.356 90.9538 110.84C90.3217 111.324 88.8223 110.663 88.2392 110.396" stroke="#263238" stroke-linecap="round" stroke-linejoin="round"/>
<path d="M85.3335 107.284C85.5744 107.284 85.7696 107.037 85.7696 106.733C85.7696 106.429 85.5744 106.183 85.3335 106.183C85.0926 106.183 84.8974 106.429 84.8974 106.733C84.8974 107.037 85.0926 107.284 85.3335 107.284Z" fill="#263238"/>
<path d="M90.6206 107.284C90.8614 107.284 91.0567 107.037 91.0567 106.733C91.0567 106.429 90.8614 106.183 90.6206 106.183C90.3797 106.183 90.1845 106.429 90.1845 106.733C90.1845 107.037 90.3797 107.284 90.6206 107.284Z" fill="#263238"/>
<path d="M89.2094 112.989C89.2094 112.989 86.6418 113.3 85.3335 112.07" stroke="#263238" stroke-linecap="round" stroke-linejoin="round"/>
<path d="M85.75 112.399C85.8169 112.744 85.9949 113.063 86.2617 113.317C86.5285 113.57 86.8722 113.747 87.2494 113.824C88.6067 114.13 88.5577 113.025 88.5577 113.025" stroke="#263238" stroke-linecap="round" stroke-linejoin="round"/>
<path d="M81.9378 99.6869C81.9378 99.6869 93.9575 102.671 95.2168 98.0618C95.2168 98.0618 93.0314 98.2972 90.6206 95.9084C87.6806 92.978 82.908 92.2188 78.8851 93.5375C74.8622 94.8562 75.1072 96.7654 75.1072 96.7654C75.1072 96.7654 72.7307 97.0495 71.6772 99.6425C70.6237 102.235 72.2946 111.395 76.3273 113.34L77.4445 112.07C77.4445 112.07 76.9986 109.455 78.9145 107.501L79.9827 107.75C79.9827 107.75 78.8214 105.486 80.0317 104.251C81.2989 103.013 81.9828 101.375 81.9378 99.6869Z" fill="#263238"/>
<path d="M78.89 107.284C78.89 107.284 77.6797 104.122 76.1313 104.953C74.5829 105.783 76.2734 111.848 78.89 110.489" fill="white"/>
<path d="M78.89 107.284C78.89 107.284 77.6797 104.122 76.1313 104.953C74.5829 105.783 76.2734 111.848 78.89 110.489" stroke="#263238" stroke-linecap="round" stroke-linejoin="round"/>
<path opacity="0.3" d="M78.89 97.1206C78.89 97.1206 86.3625 98.2616 88.5822 95.5399" stroke="white" stroke-linecap="round" stroke-linejoin="round"/>
<path opacity="0.3" d="M83.7312 98.7012C83.7312 98.7012 88.9252 100.282 92.4826 98.7012" stroke="white" stroke-linecap="round" stroke-linejoin="round"/>
<path opacity="0.3" d="M77.2093 99.4027C77.2093 99.4027 77.1358 103.305 73.1619 104.518" stroke="white" stroke-linecap="round" stroke-linejoin="round"/>
</svg>
