<svg width="21" height="20" viewBox="0 0 21 20" fill="none" xmlns="http://www.w3.org/2000/svg">
<path d="M2.5 4C2.5 3.17157 3.17157 2.5 4 2.5H16C16.8284 2.5 17.5 3.17157 17.5 4V13C17.5 13.8284 16.8284 14.5 16 14.5H11.1324C10.2508 14.5 9.4534 14.9644 8.97569 15.6748C8.74148 16.023 8.47829 16.3917 8.24398 16.669C8.14975 16.7805 8.06761 16.8683 8 16.9314C7.93239 16.8683 7.85025 16.7805 7.75602 16.669C7.52171 16.3917 7.25852 16.023 7.02431 15.6748C6.5466 14.9644 5.74916 14.5 4.86762 14.5H4C3.17157 14.5 2.5 13.8284 2.5 13V11.75V8.5V4Z" stroke="#6B6B6B"/>
<path fill-rule="evenodd" clip-rule="evenodd" d="M5 6.5H14V5.5H5V6.5ZM5 10H11.5V9H5V10Z" fill="#6B6B6B"/>
</svg>
