<svg width="64" height="20" viewBox="0 0 64 20" fill="none" xmlns="http://www.w3.org/2000/svg">
<path fill-rule="evenodd" clip-rule="evenodd" d="M5 5H14V6H5L5 5ZM4 7V6V5C4 4.44771 4.44772 4 5 4H14C14.5523 4 15 4.44772 15 5V6V7V14C15 14.5523 14.5523 15 14 15H5C4.44771 15 4 14.5523 4 14V7ZM14 14H5L5 7H14V14ZM8.29289 10.5L6.64645 8.85355L7.35355 8.14645L9.35355 10.1464C9.54882 10.3417 9.54882 10.6583 9.35355 10.8536L7.35355 12.8536L6.64645 12.1464L8.29289 10.5ZM10 12.5H13V11.5H10V12.5Z" fill="#9095A1"/>
<path d="M26.1406 11.2871H27.2656C27.207 11.8262 27.0527 12.3086 26.8027 12.7344C26.5527 13.1602 26.1992 13.498 25.7422 13.748C25.2852 13.9941 24.7148 14.1172 24.0312 14.1172C23.5312 14.1172 23.0762 14.0234 22.666 13.8359C22.2598 13.6484 21.9102 13.3828 21.6172 13.0391C21.3242 12.6914 21.0977 12.2754 20.9375 11.791C20.7812 11.3027 20.7031 10.7598 20.7031 10.1621V9.3125C20.7031 8.71484 20.7812 8.17383 20.9375 7.68945C21.0977 7.20117 21.3262 6.7832 21.623 6.43555C21.9238 6.08789 22.2852 5.82031 22.707 5.63281C23.1289 5.44531 23.6035 5.35156 24.1309 5.35156C24.7754 5.35156 25.3203 5.47266 25.7656 5.71484C26.2109 5.95703 26.5566 6.29297 26.8027 6.72266C27.0527 7.14844 27.207 7.64258 27.2656 8.20508H26.1406C26.0859 7.80664 25.9844 7.46484 25.8359 7.17969C25.6875 6.89063 25.4766 6.66797 25.2031 6.51172C24.9297 6.35547 24.5723 6.27734 24.1309 6.27734C23.752 6.27734 23.418 6.34961 23.1289 6.49414C22.8438 6.63867 22.6035 6.84375 22.4082 7.10938C22.2168 7.375 22.0723 7.69336 21.9746 8.06445C21.877 8.43555 21.8281 8.84766 21.8281 9.30078V10.1621C21.8281 10.5801 21.8711 10.9727 21.957 11.3398C22.0469 11.707 22.1816 12.0293 22.3613 12.3066C22.541 12.584 22.7695 12.8027 23.0469 12.9629C23.3242 13.1191 23.6523 13.1973 24.0312 13.1973C24.5117 13.1973 24.8945 13.1211 25.1797 12.9688C25.4648 12.8164 25.6797 12.5977 25.8242 12.3125C25.9727 12.0273 26.0781 11.6855 26.1406 11.2871ZM28.3555 10.9004L28.3555 10.7656C28.3555 10.3086 28.4219 9.88477 28.5547 9.49414C28.6875 9.09961 28.8789 8.75781 29.1289 8.46875C29.3789 8.17578 29.6816 7.94922 30.0371 7.78906C30.3926 7.625 30.791 7.54297 31.2324 7.54297C31.6777 7.54297 32.0781 7.625 32.4336 7.78906C32.793 7.94922 33.0977 8.17578 33.3477 8.46875C33.6016 8.75781 33.7949 9.09961 33.9277 9.49414C34.0605 9.88477 34.127 10.3086 34.127 10.7656V10.9004C34.127 11.3574 34.0605 11.7813 33.9277 12.1719C33.7949 12.5625 33.6016 12.9043 33.3477 13.1973C33.0977 13.4863 32.7949 13.7129 32.4395 13.877C32.0879 14.0371 31.6895 14.1172 31.2441 14.1172C30.7988 14.1172 30.3984 14.0371 30.043 13.877C29.6875 13.7129 29.3828 13.4863 29.1289 13.1973C28.8789 12.9043 28.6875 12.5625 28.5547 12.1719C28.4219 11.7813 28.3555 11.3574 28.3555 10.9004ZM29.4395 10.7656L29.4395 10.9004C29.4395 11.2168 29.4766 11.5156 29.5508 11.7969C29.625 12.0742 29.7363 12.3203 29.8848 12.5352C30.0371 12.75 30.2266 12.9199 30.4531 13.0449C30.6797 13.166 30.9434 13.2266 31.2441 13.2266C31.541 13.2266 31.8008 13.166 32.0234 13.0449C32.25 12.9199 32.4375 12.75 32.5859 12.5352C32.7344 12.3203 32.8457 12.0742 32.9199 11.7969C32.998 11.5156 33.0371 11.2168 33.0371 10.9004V10.7656C33.0371 10.4531 32.998 10.1582 32.9199 9.88086C32.8457 9.59961 32.7324 9.35156 32.5801 9.13672C32.4316 8.91797 32.2441 8.74609 32.0176 8.62109C31.7949 8.49609 31.5332 8.43359 31.2324 8.43359C30.9355 8.43359 30.6738 8.49609 30.4473 8.62109C30.2246 8.74609 30.0371 8.91797 29.8848 9.13672C29.7363 9.35156 29.625 9.59961 29.5508 9.88086C29.4766 10.1582 29.4395 10.4531 29.4395 10.7656ZM36.5703 9.01367V14H35.4863V7.66016L36.5117 7.66016L36.5703 9.01367ZM36.3125 10.5898L35.8613 10.5723C35.8652 10.1387 35.9297 9.73828 36.0547 9.37109C36.1797 9 36.3555 8.67773 36.582 8.4043C36.8086 8.13086 37.0781 7.91992 37.3906 7.77148C37.707 7.61914 38.0566 7.54297 38.4395 7.54297C38.752 7.54297 39.0332 7.58594 39.2832 7.67188C39.5332 7.75391 39.7461 7.88672 39.9219 8.07031C40.1016 8.25391 40.2383 8.49219 40.332 8.78516C40.4258 9.07422 40.4727 9.42773 40.4727 9.8457V14H39.3828V9.83398C39.3828 9.50195 39.334 9.23633 39.2363 9.03711C39.1387 8.83398 38.9961 8.6875 38.8086 8.59766C38.6211 8.50391 38.3906 8.45703 38.1172 8.45703C37.8477 8.45703 37.6016 8.51367 37.3789 8.62695C37.1602 8.74023 36.9707 8.89648 36.8105 9.0957C36.6543 9.29492 36.5312 9.52344 36.4414 9.78125C36.3555 10.0352 36.3125 10.3047 36.3125 10.5898ZM45.8105 12.3184C45.8105 12.1621 45.7754 12.0176 45.7051 11.8848C45.6387 11.748 45.5 11.625 45.2891 11.5156C45.082 11.4023 44.7695 11.3047 44.3516 11.2227C44 11.1484 43.6816 11.0605 43.3965 10.959C43.1152 10.8574 42.875 10.7344 42.6758 10.5898C42.4805 10.4453 42.3301 10.2754 42.2246 10.0801C42.1191 9.88477 42.0664 9.65625 42.0664 9.39453C42.0664 9.14453 42.1211 8.9082 42.2305 8.68555C42.3438 8.46289 42.502 8.26563 42.7051 8.09375C42.9121 7.92188 43.1602 7.78711 43.4492 7.68945C43.7383 7.5918 44.0605 7.54297 44.416 7.54297C44.9238 7.54297 45.3574 7.63281 45.7168 7.8125C46.0762 7.99219 46.3516 8.23242 46.543 8.5332C46.7344 8.83008 46.8301 9.16016 46.8301 9.52344H45.7461C45.7461 9.34766 45.6934 9.17773 45.5879 9.01367C45.4863 8.8457 45.3359 8.70703 45.1367 8.59766C44.9414 8.48828 44.7012 8.43359 44.416 8.43359C44.1152 8.43359 43.8711 8.48047 43.6836 8.57422C43.5 8.66406 43.3652 8.7793 43.2793 8.91992C43.1973 9.06055 43.1562 9.20898 43.1562 9.36523C43.1562 9.48242 43.1758 9.58789 43.2148 9.68164C43.2578 9.77148 43.332 9.85547 43.4375 9.93359C43.543 10.0078 43.6914 10.0781 43.8828 10.1445C44.0742 10.2109 44.3184 10.2773 44.6152 10.3438C45.1348 10.4609 45.5625 10.6016 45.8984 10.7656C46.2344 10.9297 46.4844 11.1309 46.6484 11.3691C46.8125 11.6074 46.8945 11.8965 46.8945 12.2363C46.8945 12.5137 46.8359 12.7676 46.7188 12.998C46.6055 13.2285 46.4395 13.4277 46.2207 13.5957C46.0059 13.7598 45.748 13.8887 45.4473 13.9824C45.1504 14.0723 44.8164 14.1172 44.4453 14.1172C43.8867 14.1172 43.4141 14.0176 43.0273 13.8184C42.6406 13.6191 42.3477 13.3613 42.1484 13.0449C41.9492 12.7285 41.8496 12.3945 41.8496 12.043H42.9395C42.9551 12.3398 43.041 12.5762 43.1973 12.752C43.3535 12.9238 43.5449 13.0469 43.7715 13.1211C43.998 13.1914 44.2227 13.2266 44.4453 13.2266C44.7422 13.2266 44.9902 13.1875 45.1895 13.1094C45.3926 13.0313 45.5469 12.9238 45.6523 12.7871C45.7578 12.6504 45.8105 12.4941 45.8105 12.3184ZM48.0312 10.9004V10.7656C48.0312 10.3086 48.0977 9.88477 48.2305 9.49414C48.3633 9.09961 48.5547 8.75781 48.8047 8.46875C49.0547 8.17578 49.3574 7.94922 49.7129 7.78906C50.0684 7.625 50.4668 7.54297 50.9082 7.54297C51.3535 7.54297 51.7539 7.625 52.1094 7.78906C52.4688 7.94922 52.7734 8.17578 53.0234 8.46875C53.2773 8.75781 53.4707 9.09961 53.6035 9.49414C53.7363 9.88477 53.8027 10.3086 53.8027 10.7656V10.9004C53.8027 11.3574 53.7363 11.7813 53.6035 12.1719C53.4707 12.5625 53.2773 12.9043 53.0234 13.1973C52.7734 13.4863 52.4707 13.7129 52.1152 13.877C51.7637 14.0371 51.3652 14.1172 50.9199 14.1172C50.4746 14.1172 50.0742 14.0371 49.7188 13.877C49.3633 13.7129 49.0586 13.4863 48.8047 13.1973C48.5547 12.9043 48.3633 12.5625 48.2305 12.1719C48.0977 11.7813 48.0312 11.3574 48.0312 10.9004ZM49.1152 10.7656V10.9004C49.1152 11.2168 49.1523 11.5156 49.2266 11.7969C49.3008 12.0742 49.4121 12.3203 49.5605 12.5352C49.7129 12.75 49.9023 12.9199 50.1289 13.0449C50.3555 13.166 50.6191 13.2266 50.9199 13.2266C51.2168 13.2266 51.4766 13.166 51.6992 13.0449C51.9258 12.9199 52.1133 12.75 52.2617 12.5352C52.4102 12.3203 52.5215 12.0742 52.5957 11.7969C52.6738 11.5156 52.7129 11.2168 52.7129 10.9004V10.7656C52.7129 10.4531 52.6738 10.1582 52.5957 9.88086C52.5215 9.59961 52.4082 9.35156 52.2559 9.13672C52.1074 8.91797 51.9199 8.74609 51.6934 8.62109C51.4707 8.49609 51.209 8.43359 50.9082 8.43359C50.6113 8.43359 50.3496 8.49609 50.123 8.62109C49.9004 8.74609 49.7129 8.91797 49.5605 9.13672C49.4121 9.35156 49.3008 9.59961 49.2266 9.88086C49.1523 10.1582 49.1152 10.4531 49.1152 10.7656ZM56.3398 5V14H55.25V5H56.3398ZM60.7109 14.1172C60.2695 14.1172 59.8691 14.043 59.5098 13.8945C59.1543 13.7422 58.8477 13.5293 58.5898 13.2559C58.3359 12.9824 58.1406 12.6582 58.0039 12.2832C57.8672 11.9082 57.7988 11.498 57.7988 11.0527V10.8066C57.7988 10.291 57.875 9.83203 58.0273 9.42969C58.1797 9.02344 58.3867 8.67969 58.6484 8.39844C58.9102 8.11719 59.207 7.9043 59.5391 7.75977C59.8711 7.61523 60.2148 7.54297 60.5703 7.54297C61.0234 7.54297 61.4141 7.62109 61.7422 7.77734C62.0742 7.93359 62.3457 8.15234 62.5566 8.43359C62.7676 8.71094 62.9238 9.03906 63.0254 9.41797C63.127 9.79297 63.1777 10.2031 63.1777 10.6484V11.1348L58.4434 11.1348V10.25L62.0938 10.25V10.168C62.0781 9.88672 62.0195 9.61328 61.918 9.34766C61.8203 9.08203 61.6641 8.86328 61.4492 8.69141C61.2344 8.51953 60.9414 8.43359 60.5703 8.43359C60.3242 8.43359 60.0977 8.48633 59.8906 8.5918C59.6836 8.69336 59.5059 8.8457 59.3574 9.04883C59.209 9.25195 59.0938 9.5 59.0117 9.79297C58.9297 10.0859 58.8887 10.4238 58.8887 10.8066V11.0527C58.8887 11.3535 58.9297 11.6367 59.0117 11.9023C59.0977 12.1641 59.2207 12.3945 59.3809 12.5938C59.5449 12.793 59.7422 12.9492 59.9727 13.0625C60.207 13.1758 60.4727 13.2324 60.7695 13.2324C61.1523 13.2324 61.4766 13.1543 61.7422 12.998C62.0078 12.8418 62.2402 12.6328 62.4395 12.3711L63.0957 12.8926C62.959 13.0996 62.7852 13.2969 62.5742 13.4844C62.3633 13.6719 62.1035 13.8242 61.7949 13.9414C61.4902 14.0586 61.1289 14.1172 60.7109 14.1172Z" fill="#9095A1"/>
</svg>
