<svg width="47" height="47" viewBox="0 0 47 47" fill="none" xmlns="http://www.w3.org/2000/svg">
<g clip-path="url(#clip0_10_539)">
<path d="M27.4167 5.875V13.7083C27.4167 14.2277 27.623 14.7258 27.9902 15.0931C28.3575 15.4603 28.8556 15.6667 29.375 15.6667H37.2083" stroke="#E8EBF3" stroke-width="2" stroke-linecap="round" stroke-linejoin="round"/>
<path d="M33.2917 41.125H13.7083C12.6696 41.125 11.6733 40.7124 10.9388 39.9778C10.2043 39.2433 9.79166 38.2471 9.79166 37.2083V9.79167C9.79166 8.7529 10.2043 7.75668 10.9388 7.02216C11.6733 6.28765 12.6696 5.875 13.7083 5.875H27.4167L37.2083 15.6667V37.2083C37.2083 38.2471 36.7957 39.2433 36.0612 39.9778C35.3266 40.7124 34.3304 41.125 33.2917 41.125Z" stroke="#E8EBF3" stroke-width="2" stroke-linecap="round" stroke-linejoin="round"/>
<path d="M21.5417 24.4792C21.5417 23.7001 21.2322 22.9529 20.6813 22.402C20.1304 21.8511 19.3832 21.5417 18.6042 21.5417C17.8251 21.5417 17.0779 21.8511 16.527 22.402C15.9761 22.9529 15.6667 23.7001 15.6667 24.4792V30.3542C15.6667 31.1332 15.9761 31.8804 16.527 32.4313C17.0779 32.9822 17.8251 33.2917 18.6042 33.2917C19.3832 33.2917 20.1304 32.9822 20.6813 32.4313C21.2322 31.8804 21.5417 31.1332 21.5417 30.3542" stroke="#E8EBF3" stroke-width="2" stroke-linecap="round" stroke-linejoin="round"/>
<path d="M25.4583 21.5417L28.3958 33.2917L31.3333 21.5417" stroke="#E8EBF3" stroke-width="2" stroke-linecap="round" stroke-linejoin="round"/>
</g>
<defs>
<clipPath id="clip0_10_539">
<rect width="47" height="47" fill="white"/>
</clipPath>
</defs>
</svg>
