<svg width="21" height="21" viewBox="0 0 21 21" fill="none" xmlns="http://www.w3.org/2000/svg">
<path fill-rule="evenodd" clip-rule="evenodd" d="M4.59808 10.5C4.59808 6.91015 7.50822 4 11.0981 4C14.6879 4 17.5981 6.91015 17.5981 10.5C17.5981 14.0899 14.6879 17 11.0981 17C9.40772 17 7.86906 16.3554 6.71266 15.2978L6.03777 16.0357C7.37126 17.2553 9.14828 18 11.0981 18C15.2402 18 18.5981 14.6421 18.5981 10.5C18.5981 6.35786 15.2402 3 11.0981 3C6.95594 3 3.59808 6.35786 3.59808 10.5H1.5L4.09808 13.5L6.69615 10.5H4.59808ZM9.59808 11.5V7.5H10.5981V11.2324L13.3754 13.084L12.8207 13.916L9.82073 11.916C9.68163 11.8233 9.59808 11.6672 9.59808 11.5Z" fill="#E8EBF3"/>
</svg>
