<svg width="13" height="15" viewBox="0 0 13 15" fill="none" xmlns="http://www.w3.org/2000/svg">
<path fill-rule="evenodd" clip-rule="evenodd" d="M8.5 3C8.5 4.10457 7.60457 5 6.5 5C5.39543 5 4.5 4.10457 4.5 3C4.5 1.89543 5.39543 1 6.5 1C7.60457 1 8.5 1.89543 8.5 3ZM9.5 3C9.5 4.65685 8.15685 6 6.5 6C4.84315 6 3.5 4.65685 3.5 3C3.5 1.34315 4.84315 0 6.5 0C8.15685 0 9.5 1.34315 9.5 3ZM4.5 7.5C2.01472 7.5 0 9.51472 0 12V14.5H1V12C1 10.067 2.567 8.5 4.5 8.5H8.5C10.433 8.5 12 10.067 12 12V14.5H13V12C13 9.51472 10.9853 7.5 8.5 7.5H4.5Z" fill="#E8EBF3"/>
</svg>
