<svg width="21" height="20" viewBox="0 0 21 20" fill="none" xmlns="http://www.w3.org/2000/svg">
<path fill-rule="evenodd" clip-rule="evenodd" d="M15 17V9.5V5.58853L14.9323 5.5H12V2L9.5 2L4 2V9.5L4 17H15ZM15 18H4C3.44772 18 3 17.5523 3 17V9.5V2C3 1.44772 3.44772 1 4 1H9.5H12.2558C12.5673 1 12.861 1.14513 13.0502 1.39255L15.7944 4.98108C15.9277 5.1555 16 5.36896 16 5.58853V9.5V17C16 17.5523 15.5523 18 15 18ZM8 5H6V4H8V5ZM12 8.5H6V7.5H12V8.5ZM12 10.5H6V9.5H12V10.5ZM10 12.5V11.5H6V12.5H10Z" fill="#6B6B6B"/>
</svg>
