<svg width="18" height="19" viewBox="0 0 18 19" fill="none" xmlns="http://www.w3.org/2000/svg">
<path fill-rule="evenodd" clip-rule="evenodd" d="M15 6C16.6569 6 18 4.65685 18 3C18 1.34315 16.6569 0 15 0C13.3431 0 12 1.34315 12 3C12 4.65685 13.3431 6 15 6ZM6.46206 5.30861C6.43802 5.25051 6.40256 5.19602 6.35567 5.14857L6.35143 5.14433C6.26112 5.05509 6.13699 5 6 5H5.99991H2C1.72386 5 1.5 5.22386 1.5 5.5C1.5 5.77614 1.72386 6 2 6H4.79289L0.146447 10.6464C-0.0488155 10.8417 -0.0488155 11.1583 0.146447 11.3536C0.341709 11.5488 0.658291 11.5488 0.853553 11.3536L5.5 6.70711V9.5C5.5 9.77614 5.72386 10 6 10C6.27614 10 6.5 9.77614 6.5 9.5V5.50035L6.49999 5.497C6.49961 5.43287 6.48697 5.3688 6.46206 5.30861ZM3.03794 18.1914C3.06198 18.2495 3.09744 18.304 3.14433 18.3514L3.14857 18.3557C3.23888 18.4449 3.36301 18.5 3.5 18.5H3.50009H7.5C7.77614 18.5 8 18.2761 8 18C8 17.7239 7.77614 17.5 7.5 17.5H4.70711L9.35355 12.8536C9.54882 12.6583 9.54882 12.3417 9.35355 12.1464C9.15829 11.9512 8.84171 11.9512 8.64645 12.1464L4 16.7929V14C4 13.7239 3.77614 13.5 3.5 13.5C3.22386 13.5 3 13.7239 3 14V17.9997L3.00001 18.003C3.00039 18.0671 3.01303 18.1312 3.03794 18.1914Z" fill="#6B6B6B"/>
</svg>
