<svg width="17" height="14" viewBox="0 0 17 14" fill="none" xmlns="http://www.w3.org/2000/svg">
<path fill-rule="evenodd" clip-rule="evenodd" d="M10.9762 1.15264C11.0604 0.88964 10.9154 0.608206 10.6524 0.524044C10.3894 0.439883 10.108 0.584864 10.0238 0.847869L6.02379 13.3479C5.93963 13.6109 6.08461 13.8923 6.34761 13.9765C6.61062 14.0606 6.89205 13.9156 6.97621 13.6526L10.9762 1.15264ZM4.32925 3.12397C4.53707 3.30581 4.55813 3.62169 4.37629 3.82951L1.16438 7.50026L4.37629 11.171C4.55813 11.3788 4.53707 11.6947 4.32925 11.8765C4.12143 12.0584 3.80555 12.0373 3.62371 11.8295L0.123712 7.82951C-0.0412372 7.641 -0.0412372 7.35952 0.123712 7.171L3.62371 3.171C3.80555 2.96319 4.12143 2.94213 4.32925 3.12397ZM12.6707 3.12397C12.4629 3.30581 12.4419 3.62169 12.6237 3.82951L15.8356 7.50026L12.6237 11.171C12.4419 11.3788 12.4629 11.6947 12.6707 11.8765C12.8786 12.0584 13.1944 12.0373 13.3763 11.8295L16.8763 7.82951C17.0412 7.641 17.0412 7.35952 16.8763 7.171L13.3763 3.171C13.1944 2.96319 12.8786 2.94213 12.6707 3.12397Z" fill="#6B6B6B"/>
</svg>
