<svg width="47" height="47" viewBox="0 0 47 47" fill="none" xmlns="http://www.w3.org/2000/svg">
<rect width="47" height="47" fill="none"/>
<path d="M29.375 43.0833V35.25C29.6474 32.7968 28.944 30.3348 27.4167 28.3958C33.2917 28.3958 39.1667 24.4792 39.1667 17.625C39.3233 15.1771 38.6379 12.7683 37.2083 10.7708C37.7567 8.51874 37.7567 6.16874 37.2083 3.91666C37.2083 3.91666 35.25 3.91666 31.3333 6.85416C26.1633 5.87499 20.8367 5.87499 15.6667 6.85416C11.75 3.91666 9.79167 3.91666 9.79167 3.91666C9.20417 6.16874 9.20417 8.51874 9.79167 10.7708C8.36575 12.7603 7.67368 15.1825 7.83334 17.625C7.83334 24.4792 13.7083 28.3958 19.5833 28.3958C18.8196 29.3554 18.2517 30.4521 17.9188 31.6271C17.5858 32.8021 17.4879 34.0358 17.625 35.25V43.0833" stroke="#E8EBF3" stroke-width="2" stroke-linecap="round" stroke-linejoin="round"/>
<path d="M17.625 35.25C8.79292 39.1667 7.83334 31.3333 3.91667 31.3333" stroke="#E8EBF3" stroke-width="2" stroke-linecap="round" stroke-linejoin="round"/>
</svg>
