<svg width="289" height="25" viewBox="0 0 289 25" fill="none" xmlns="http://www.w3.org/2000/svg">
<path d="M0 12.25H12M6 6.25V18.75" stroke="#6B6B6B" stroke-linejoin="round"/>
<path d="M31 7H45.5M32.5 10.5H44M34.5 15H42M36.5 18.5H40" stroke="#585859" stroke-linejoin="round"/>
<rect x="23.5" y="0.5" width="240" height="24" rx="1.5" stroke="#585859"/>
<path fill-rule="evenodd" clip-rule="evenodd" d="M277 13.5C277.552 13.5 278 13.0523 278 12.5C278 11.9477 277.552 11.5 277 11.5C276.448 11.5 276 11.9477 276 12.5C276 13.0523 276.448 13.5 277 13.5ZM277 14.5C278.105 14.5 279 13.6046 279 12.5C279 11.3954 278.105 10.5 277 10.5C275.895 10.5 275 11.3954 275 12.5C275 13.6046 275.895 14.5 277 14.5ZM282 13.5C282.552 13.5 283 13.0523 283 12.5C283 11.9477 282.552 11.5 282 11.5C281.448 11.5 281 11.9477 281 12.5C281 13.0523 281.448 13.5 282 13.5ZM282 14.5C283.105 14.5 284 13.6046 284 12.5C284 11.3954 283.105 10.5 282 10.5C280.895 10.5 280 11.3954 280 12.5C280 13.6046 280.895 14.5 282 14.5ZM288 12.5C288 13.0523 287.552 13.5 287 13.5C286.448 13.5 286 13.0523 286 12.5C286 11.9477 286.448 11.5 287 11.5C287.552 11.5 288 11.9477 288 12.5ZM289 12.5C289 13.6046 288.105 14.5 287 14.5C285.895 14.5 285 13.6046 285 12.5C285 11.3954 285.895 10.5 287 10.5C288.105 10.5 289 11.3954 289 12.5Z" fill="#6B6B6B"/>
</svg>
