<svg width="54" height="20" viewBox="0 0 54 20" fill="none" xmlns="http://www.w3.org/2000/svg">
<path fill-rule="evenodd" clip-rule="evenodd" d="M15 9.5C15 12.5376 12.5376 15 9.5 15C6.46243 15 4 12.5376 4 9.5C4 6.46243 6.46243 4 9.5 4C12.5376 4 15 6.46243 15 9.5ZM16 9.5C16 13.0899 13.0899 16 9.5 16C5.91015 16 3 13.0899 3 9.5C3 5.91015 5.91015 3 9.5 3C13.0899 3 16 5.91015 16 9.5ZM9.35355 11.3536L12.8536 7.85355L12.1464 7.14645L9 10.2929L7.35355 8.64645L6.64645 9.35355L8.64645 11.3536C8.84171 11.5488 9.15829 11.5488 9.35355 11.3536Z" fill="#0fc144"/>
<path d="M27.5586 9.46484V10.0039C27.5586 10.6445 27.4785 11.2188 27.3184 11.7266C27.1582 12.2344 26.9277 12.666 26.627 13.0215C26.3262 13.377 25.9648 13.6484 25.543 13.8359C25.125 14.0234 24.6562 14.1172 24.1367 14.1172C23.6328 14.1172 23.1699 14.0234 22.748 13.8359C22.3301 13.6484 21.9668 13.377 21.6582 13.0215C21.3535 12.666 21.1172 12.2344 20.9492 11.7266C20.7812 11.2188 20.6973 10.6445 20.6973 10.0039V9.46484C20.6973 8.82422 20.7793 8.25195 20.9434 7.74805C21.1113 7.24023 21.3477 6.80859 21.6523 6.45312C21.957 6.09375 22.3184 5.82031 22.7363 5.63281C23.1582 5.44531 23.6211 5.35156 24.125 5.35156C24.6445 5.35156 25.1133 5.44531 25.5312 5.63281C25.9531 5.82031 26.3145 6.09375 26.6152 6.45313C26.9199 6.80859 27.1523 7.24023 27.3125 7.74805C27.4766 8.25195 27.5586 8.82422 27.5586 9.46484ZM26.4395 10.0039V9.45313C26.4395 8.94531 26.3867 8.49609 26.2812 8.10547C26.1797 7.71484 26.0293 7.38672 25.8301 7.12109C25.6309 6.85547 25.3867 6.6543 25.0977 6.51758C24.8125 6.38086 24.4883 6.3125 24.125 6.3125C23.7734 6.3125 23.4551 6.38086 23.1699 6.51758C22.8887 6.6543 22.6465 6.85547 22.4434 7.12109C22.2441 7.38672 22.0898 7.71484 21.9805 8.10547C21.8711 8.49609 21.8164 8.94531 21.8164 9.45312V10.0039C21.8164 10.5156 21.8711 10.9688 21.9805 11.3633C22.0898 11.7539 22.2461 12.084 22.4492 12.3535C22.6562 12.6191 22.9004 12.8203 23.1816 12.957C23.4668 13.0938 23.7852 13.1621 24.1367 13.1621C24.5039 13.1621 24.8301 13.0938 25.1152 12.957C25.4004 12.8203 25.6406 12.6191 25.8359 12.3535C26.0352 12.084 26.1855 11.7539 26.2871 11.3633C26.3887 10.9688 26.4395 10.5156 26.4395 10.0039ZM30.1719 9.01367L30.1719 14H29.0879L29.0879 7.66016H30.1133L30.1719 9.01367ZM29.9141 10.5898L29.4629 10.5723C29.4668 10.1387 29.5312 9.73828 29.6562 9.37109C29.7812 9 29.957 8.67773 30.1836 8.4043C30.4102 8.13086 30.6797 7.91992 30.9922 7.77148C31.3086 7.61914 31.6582 7.54297 32.041 7.54297C32.3535 7.54297 32.6348 7.58594 32.8848 7.67188C33.1348 7.75391 33.3477 7.88672 33.5234 8.07031C33.7031 8.25391 33.8398 8.49219 33.9336 8.78516C34.0273 9.07422 34.0742 9.42773 34.0742 9.8457V14H32.9844V9.83398C32.9844 9.50195 32.9355 9.23633 32.8379 9.03711C32.7402 8.83398 32.5977 8.6875 32.4102 8.59766C32.2227 8.50391 31.9922 8.45703 31.7188 8.45703C31.4492 8.45703 31.2031 8.51367 30.9805 8.62695C30.7617 8.74023 30.5723 8.89648 30.4121 9.0957C30.2559 9.29492 30.1328 9.52344 30.043 9.78125C29.957 10.0352 29.9141 10.3047 29.9141 10.5898ZM36.8984 5V14H35.8086V5L36.8984 5ZM39.8164 7.66016V14H38.7266V7.66016H39.8164ZM38.6445 5.97852C38.6445 5.80273 38.6973 5.6543 38.8027 5.5332C38.9121 5.41211 39.0723 5.35156 39.2832 5.35156C39.4902 5.35156 39.6484 5.41211 39.7578 5.5332C39.8711 5.6543 39.9277 5.80273 39.9277 5.97852C39.9277 6.14648 39.8711 6.29102 39.7578 6.41211C39.6484 6.5293 39.4902 6.58789 39.2832 6.58789C39.0723 6.58789 38.9121 6.5293 38.8027 6.41211C38.6973 6.29102 38.6445 6.14648 38.6445 5.97852ZM42.6406 9.01367V14H41.5566V7.66016H42.582L42.6406 9.01367ZM42.3828 10.5898L41.9316 10.5723C41.9355 10.1387 42 9.73828 42.125 9.37109C42.25 9 42.4258 8.67773 42.6523 8.4043C42.8789 8.13086 43.1484 7.91992 43.4609 7.77148C43.7773 7.61914 44.127 7.54297 44.5098 7.54297C44.8223 7.54297 45.1035 7.58594 45.3535 7.67188C45.6035 7.75391 45.8164 7.88672 45.9922 8.07031C46.1719 8.25391 46.3086 8.49219 46.4023 8.78516C46.4961 9.07422 46.543 9.42773 46.543 9.8457V14H45.4531V9.83398C45.4531 9.50195 45.4043 9.23633 45.3066 9.03711C45.209 8.83398 45.0664 8.6875 44.8789 8.59766C44.6914 8.50391 44.4609 8.45703 44.1875 8.45703C43.918 8.45703 43.6719 8.51367 43.4492 8.62695C43.2305 8.74023 43.041 8.89648 42.8809 9.0957C42.7246 9.29492 42.6016 9.52344 42.5117 9.78125C42.4258 10.0352 42.3828 10.3047 42.3828 10.5898ZM50.8203 14.1172C50.3789 14.1172 49.9785 14.043 49.6191 13.8945C49.2637 13.7422 48.957 13.5293 48.6992 13.2559C48.4453 12.9824 48.25 12.6582 48.1133 12.2832C47.9766 11.9082 47.9082 11.498 47.9082 11.0527V10.8066C47.9082 10.291 47.9844 9.83203 48.1367 9.42969C48.2891 9.02344 48.4961 8.67969 48.7578 8.39844C49.0195 8.11719 49.3164 7.9043 49.6484 7.75977C49.9805 7.61523 50.3242 7.54297 50.6797 7.54297C51.1328 7.54297 51.5234 7.62109 51.8516 7.77734C52.1836 7.93359 52.4551 8.15234 52.666 8.43359C52.877 8.71094 53.0332 9.03906 53.1348 9.41797C53.2363 9.79297 53.2871 10.2031 53.2871 10.6484V11.1348L48.5527 11.1348V10.25H52.2031V10.168C52.1875 9.88672 52.1289 9.61328 52.0273 9.34766C51.9297 9.08203 51.7734 8.86328 51.5586 8.69141C51.3438 8.51953 51.0508 8.43359 50.6797 8.43359C50.4336 8.43359 50.207 8.48633 50 8.5918C49.793 8.69336 49.6152 8.8457 49.4668 9.04883C49.3184 9.25195 49.2031 9.5 49.1211 9.79297C49.0391 10.0859 48.998 10.4238 48.998 10.8066V11.0527C48.998 11.3535 49.0391 11.6367 49.1211 11.9023C49.207 12.1641 49.3301 12.3945 49.4902 12.5938C49.6543 12.793 49.8516 12.9492 50.082 13.0625C50.3164 13.1758 50.582 13.2324 50.8789 13.2324C51.2617 13.2324 51.5859 13.1543 51.8516 12.998C52.1172 12.8418 52.3496 12.6328 52.5488 12.3711L53.2051 12.8926C53.0684 13.0996 52.8945 13.2969 52.6836 13.4844C52.4727 13.6719 52.2129 13.8242 51.9043 13.9414C51.5996 14.0586 51.2383 14.1172 50.8203 14.1172Z" fill="#0fc144"/>
</svg>
