<svg width="47" height="47" viewBox="0 0 47 47" fill="none" xmlns="http://www.w3.org/2000/svg">
<path d="M31.3333 15.6667C34.4496 15.6667 37.4383 16.9046 39.6418 19.1082C41.8454 21.3117 43.0833 24.3004 43.0833 27.4167V41.125H35.25V27.4167C35.25 26.3779 34.8373 25.3817 34.1028 24.6472C33.3683 23.9126 32.3721 23.5 31.3333 23.5C30.2946 23.5 29.2983 23.9126 28.5638 24.6472C27.8293 25.3817 27.4167 26.3779 27.4167 27.4167V41.125H19.5833V27.4167C19.5833 24.3004 20.8213 21.3117 23.0248 19.1082C25.2284 16.9046 28.217 15.6667 31.3333 15.6667Z" stroke="#E8EBF3" stroke-width="2" stroke-linecap="round" stroke-linejoin="round"/>
<path d="M11.75 17.625H3.91667V41.125H11.75V17.625Z" stroke="#E8EBF3" stroke-width="2" stroke-linecap="round" stroke-linejoin="round"/>
<path d="M7.83334 11.75C9.99645 11.75 11.75 9.99644 11.75 7.83332C11.75 5.67021 9.99645 3.91666 7.83334 3.91666C5.67022 3.91666 3.91667 5.67021 3.91667 7.83332C3.91667 9.99644 5.67022 11.75 7.83334 11.75Z" stroke="#E8EBF3" stroke-width="2" stroke-linecap="round" stroke-linejoin="round"/>
</svg>
