<svg width="20" height="20" viewBox="0 0 20 21" fill="none" xmlns="http://www.w3.org/2000/svg">
<path fill-rule="evenodd" clip-rule="evenodd" d="M2.5 4.25C2.5 3.42157 3.17157 2.75 4 2.75H17C17.8284 2.75 18.5 3.42157 18.5 4.25V10.75V14.5H17.5V10.75V4.25C17.5 3.97386 17.2761 3.75 17 3.75H4C3.72386 3.75 3.5 3.97386 3.5 4.25V17.25C3.5 17.5261 3.72386 17.75 4 17.75H10.5H14.25V18.75H10.5H4C3.17157 18.75 2.5 18.0784 2.5 17.25V4.25ZM13 9.25H8V12.25H13V9.25ZM8 8.25C7.44772 8.25 7 8.69772 7 9.25V12.25C7 12.8023 7.44772 13.25 8 13.25H13C13.5523 13.25 14 12.8023 14 12.25V9.25C14 8.69772 13.5523 8.25 13 8.25H8ZM19 16.25H16V19.25H19V16.25Z" fill="#E8EBF3"/>
</svg>
